<?xml version="1.0" encoding="UTF-8"?>
<svg xmlns="http://www.w3.org/2000/svg" viewBox="0 0 42.5 42.5" xml:space="preserve">
<style type="text/css">
	.st0{fill:#FFF;}
</style>

	
	<g>
		
			<path class="st0" d="m21.3 0c-11.8 0-21.3 9.5-21.3 21.3s9.5 21.3 21.3 21.3 21.2-9.6 21.2-21.3-9.5-21.3-21.2-21.3zm0 41c-10.9 0-19.8-8.8-19.8-19.7s8.9-19.8 19.8-19.8 19.7 8.9 19.7 19.8-8.8 19.7-19.7 19.7z"></path>
			<path class="st0" d="m31 12.3h-19.5c-1.4 0-2.4 1.1-2.4 2.4v13c0 1.4 1.1 2.4 2.4 2.4h19.5c1.4 0 2.4-1.1 2.4-2.4v-13c0.1-1.3-1-2.4-2.4-2.4zm-0.5 1.6-9.2 7.1-9.3-7.1h18.5zm1.4 13.9c0 0.5-0.4 0.8-0.8 0.8h-19.6c-0.5 0-0.8-0.4-0.8-0.8v-12.8l10.1 7.8c0.3 0.2 0.7 0.2 1 0l10.1-7.8v12.8z"></path>
		
	</g>

</svg>
