<?xml version="1.0" encoding="utf-8"?>
<!-- Generator: Adobe Illustrator 21.0.2, SVG Export Plug-In . SVG Version: 6.00 Build 0)  -->
<svg version="1.1" xmlns="http://www.w3.org/2000/svg" xmlns:xlink="http://www.w3.org/1999/xlink" x="0px" y="0px"
	 viewBox="0 0 327.1 111.4" style="enable-background:new 0 0 327.1 111.4;" xml:space="preserve">
<style type="text/css">
	.st0{display:none;}
	.st1{display:inline;fill:#2A2623;}
	.st2{display:inline;fill:#928B81;}
	.st3{display:inline;fill:#E98300;}
	.st4{display:inline;fill:none;stroke:#FFFFFF;stroke-width:2;}
	.st5{display:inline;fill:#FFFFFF;}
	.st6{display:inline;fill:#006A4D;}
	.st7{fill:#2A2623;}
	.st8{fill:#E98300;}
	.st9{fill:#006A4D;}
	.st10{fill:#928B81;}
	.st11{display:inline;}
</style>
<g id="Colours" class="st0">
	<rect x="249.8" y="145.7" class="st1" width="83.3" height="129.4"/>
	<rect x="166.6" y="145.7" class="st2" width="83.3" height="129.4"/>
	<rect x="0" y="145.7" class="st3" width="83.3" height="129.4"/>
	<rect x="5.6" y="152.1" class="st4" width="72.1" height="72.1"/>
	<rect x="4.8" y="223.5" class="st5" width="73.8" height="46.3"/>
	<rect x="83.3" y="145.7" class="st6" width="83.3" height="129.4"/>
	<text transform="matrix(1 0 0 1 7.1386 231.626)" class="st11"><tspan x="0" y="0" class="st7" style="font-family:'SourceSansPro-Regular'; font-size:7.5545px;">Landmark O</tspan><tspan x="38.8" y="0" class="st7" style="font-family:'SourceSansPro-Regular'; font-size:7.5545px;">r</tspan><tspan x="41.2" y="0" class="st7" style="font-family:'SourceSansPro-Regular'; font-size:7.5545px;">an</tspan><tspan x="49.1" y="0" class="st7" style="font-family:'SourceSansPro-Regular'; font-size:7.5545px;">g</tspan><tspan x="52.9" y="0" class="st7" style="font-family:'SourceSansPro-Regular'; font-size:7.5545px;">e</tspan></text>
	<text transform="matrix(1 0 0 1 7.1386 240.6914)" class="st11"><tspan x="0" y="0" class="st7" style="font-family:'SourceSansPro-Light'; font-size:7.5545px;">C:0  M:58  </tspan><tspan x="29.8" y="0" class="st7" style="font-family:'SourceSansPro-Light'; font-size:7.5545px;">Y</tspan><tspan x="33" y="0" class="st7" style="font-family:'SourceSansPro-Light'; font-size:7.5545px;">:100  K:0</tspan></text>
	<text transform="matrix(1 0 0 1 7.1386 249.7568)" class="st1" style="font-family:'SourceSansPro-Bold'; font-size:7.5545px;">R: 233  G:131  B:0</text>
	<text transform="matrix(1 0 0 1 7.1386 258.8222)" class="st11"><tspan x="0" y="0" class="st7" style="font-family:'SourceSansPro-Light'; font-size:7.5545px;">P</tspan><tspan x="3.8" y="0" class="st7" style="font-family:'SourceSansPro-Light'; font-size:7.5545px;">an</tspan><tspan x="11.5" y="0" class="st7" style="font-family:'SourceSansPro-Light'; font-size:7.5545px;">t</tspan><tspan x="13.8" y="0" class="st7" style="font-family:'SourceSansPro-Light'; font-size:7.5545px;">one: 144c</tspan></text>
	<text transform="matrix(1 0 0 1 7.1386 267.8877)" class="st1" style="font-family:'SourceSansPro-Light'; font-size:7.5545px;">Hex: E98300</text>
	<rect x="88.9" y="152.1" class="st4" width="72.1" height="72.1"/>
	<rect x="172.2" y="152.1" class="st4" width="72.1" height="72.1"/>
	<rect x="255.4" y="152.1" class="st4" width="72.1" height="72.1"/>
	<rect x="88" y="223.5" class="st5" width="73.8" height="46.3"/>
	<rect x="171.3" y="223.5" class="st5" width="73.8" height="46.3"/>
	<rect x="254.6" y="223.5" class="st5" width="73.8" height="46.3"/>
	<text transform="matrix(1 0 0 1 90.4159 231.626)" class="st11"><tspan x="0" y="0" class="st7" style="font-family:'SourceSansPro-Regular'; font-size:7.5545px;">Landmark G</tspan><tspan x="38.4" y="0" class="st7" style="font-family:'SourceSansPro-Regular'; font-size:7.5545px;">r</tspan><tspan x="41" y="0" class="st7" style="font-family:'SourceSansPro-Regular'; font-size:7.5545px;">een</tspan></text>
	<text transform="matrix(1 0 0 1 90.4159 240.6914)" class="st11"><tspan x="0" y="0" class="st7" style="font-family:'SourceSansPro-Light'; font-size:7.5545px;">C:93  M:10  </tspan><tspan x="33.4" y="0" class="st7" style="font-family:'SourceSansPro-Light'; font-size:7.5545px;">Y</tspan><tspan x="36.7" y="0" class="st7" style="font-family:'SourceSansPro-Light'; font-size:7.5545px;">:77  K:45</tspan></text>
	<text transform="matrix(1 0 0 1 90.4159 249.7568)" class="st1" style="font-family:'SourceSansPro-Bold'; font-size:7.5545px;">R:0  G:106  B:77</text>
	<text transform="matrix(1 0 0 1 90.4159 258.8222)" class="st11"><tspan x="0" y="0" class="st7" style="font-family:'SourceSansPro-Light'; font-size:7.5545px;">P</tspan><tspan x="3.8" y="0" class="st7" style="font-family:'SourceSansPro-Light'; font-size:7.5545px;">an</tspan><tspan x="11.5" y="0" class="st7" style="font-family:'SourceSansPro-Light'; font-size:7.5545px;">t</tspan><tspan x="13.8" y="0" class="st7" style="font-family:'SourceSansPro-Light'; font-size:7.5545px;">one: 342c</tspan></text>
	<text transform="matrix(1 0 0 1 90.4159 267.8877)" class="st1" style="font-family:'SourceSansPro-Light'; font-size:7.5545px;">Hex: 006A4D</text>
	
		<text transform="matrix(1 0 0 1 173.6962 231.626)" class="st1" style="font-family:'SourceSansPro-Regular'; font-size:7.5545px;">Landmark Grey</text>
	<text transform="matrix(1 0 0 1 173.6962 240.6914)" class="st11"><tspan x="0" y="0" class="st7" style="font-family:'SourceSansPro-Light'; font-size:7.5545px;">C:18  M:22  </tspan><tspan x="33.4" y="0" class="st7" style="font-family:'SourceSansPro-Light'; font-size:7.5545px;">Y</tspan><tspan x="36.7" y="0" class="st7" style="font-family:'SourceSansPro-Light'; font-size:7.5545px;">:29  K:49</tspan></text>
	<text transform="matrix(1 0 0 1 173.6962 249.7568)" class="st1" style="font-family:'SourceSansPro-Bold'; font-size:7.5545px;">R:146  G:139  B:129</text>
	<text transform="matrix(1 0 0 1 173.6962 258.8222)" class="st11"><tspan x="0" y="0" class="st7" style="font-family:'SourceSansPro-Light'; font-size:7.5545px;">P</tspan><tspan x="3.8" y="0" class="st7" style="font-family:'SourceSansPro-Light'; font-size:7.5545px;">an</tspan><tspan x="11.5" y="0" class="st7" style="font-family:'SourceSansPro-Light'; font-size:7.5545px;">t</tspan><tspan x="13.8" y="0" class="st7" style="font-family:'SourceSansPro-Light'; font-size:7.5545px;">one: 403c</tspan></text>
	<text transform="matrix(1 0 0 1 173.6962 267.8877)" class="st1" style="font-family:'SourceSansPro-Light'; font-size:7.5545px;">Hex: 928B81</text>
	
		<text transform="matrix(1 0 0 1 256.9764 231.626)" class="st1" style="font-family:'SourceSansPro-Regular'; font-size:7.5545px;">Landmark Black</text>
	<text transform="matrix(1 0 0 1 256.9764 240.6914)" class="st1" style="font-family:'SourceSansPro-Light'; font-size:7.5545px;">C:63  M:62  Y:59 K:94</text>
	<text transform="matrix(1 0 0 1 256.9764 249.7568)" class="st1" style="font-family:'SourceSansPro-Bold'; font-size:7.5545px;">R:42  G:38  B:35</text>
	<text transform="matrix(1 0 0 1 256.9764 258.8222)" class="st11"><tspan x="0" y="0" class="st7" style="font-family:'SourceSansPro-Light'; font-size:7.5545px;">P</tspan><tspan x="3.8" y="0" class="st7" style="font-family:'SourceSansPro-Light'; font-size:7.5545px;">an</tspan><tspan x="11.5" y="0" class="st7" style="font-family:'SourceSansPro-Light'; font-size:7.5545px;">t</tspan><tspan x="13.8" y="0" class="st7" style="font-family:'SourceSansPro-Light'; font-size:7.5545px;">one: Black C</tspan></text>
	<text transform="matrix(1 0 0 1 256.9764 267.8877)" class="st1" style="font-family:'SourceSansPro-Light'; font-size:7.5545px;">Hex: 2A2623</text>
</g>
<g id="Logo_Artwork">
	<g>
		<g>
			<g>
				<path class="st7" d="M63.4,68.6c-4.2,0-7.9-1.7-11-4.9c-3.1-3.3-4.6-7.4-4.6-12.3c0-5,1.5-9.2,4.5-12.5c3-3.2,6.7-4.9,10.9-4.9
					c2,0,3.8,0.4,5.6,1.1c1.6,0.7,3.1,1.7,4.4,3v-3.3h8.6v32.9h-8.6v-3.2c-1.5,1.4-3,2.3-4.5,3C67.1,68.2,65.3,68.6,63.4,68.6z
					 M64.8,42c-2.4,0-4.5,0.9-6.1,2.6c-1.6,1.7-2.4,4-2.4,6.7c0,2.7,0.8,5,2.5,6.8c1.6,1.8,3.7,2.6,6.1,2.6c2.5,0,4.6-0.9,6.2-2.6
					c1.6-1.7,2.5-4,2.5-6.8c0-2.8-0.8-5-2.5-6.7C69.4,42.8,67.3,42,64.8,42z"/>
			</g>
			<g>
				<path class="st7" d="M63.4,68.6c-4.2,0-7.9-1.7-11-4.9c-3.1-3.3-4.6-7.4-4.6-12.3c0-5,1.5-9.2,4.5-12.5c3-3.2,6.7-4.9,10.9-4.9
					c2,0,3.8,0.4,5.6,1.1c1.6,0.7,3.1,1.7,4.4,3v-3.3h8.6v32.9h-8.6v-3.2c-1.5,1.4-3,2.3-4.5,3C67.1,68.2,65.3,68.6,63.4,68.6z
					 M64.8,42c-2.4,0-4.5,0.9-6.1,2.6c-1.6,1.7-2.4,4-2.4,6.7c0,2.7,0.8,5,2.5,6.8c1.6,1.8,3.7,2.6,6.1,2.6c2.5,0,4.6-0.9,6.2-2.6
					c1.6-1.7,2.5-4,2.5-6.8c0-2.8-0.8-5-2.5-6.7C69.4,42.8,67.3,42,64.8,42z"/>
			</g>
		</g>
		<g>
			<g>
				<path class="st7" d="M115.6,67.8h-8.5V53.3c0-3.8-0.2-6.4-0.5-7.7c-0.3-1.2-0.9-2.2-1.7-2.8c-0.8-0.6-1.9-1-3.1-1
					c-1.6,0-3,0.5-4.1,1.6c-1.1,1.1-1.9,2.6-2.4,4.5c-0.2,1-0.4,3.2-0.4,6.5v13.2h-8.6V34.9h8.6v3.1c1.7-1.4,3.3-2.4,4.7-3
					c1.5-0.6,3.1-0.9,4.7-0.9c3.3,0,6.1,1.2,8.3,3.4c1.9,1.9,2.9,4.8,2.9,8.6V67.8z"/>
			</g>
			<g>
				<path class="st7" d="M115.6,67.8h-8.5V53.3c0-3.8-0.2-6.4-0.5-7.7c-0.3-1.2-0.9-2.2-1.7-2.8c-0.8-0.6-1.9-1-3.1-1
					c-1.6,0-3,0.5-4.1,1.6c-1.1,1.1-1.9,2.6-2.4,4.5c-0.2,1-0.4,3.2-0.4,6.5v13.2h-8.6V34.9h8.6v3.1c1.7-1.4,3.3-2.4,4.7-3
					c1.5-0.6,3.1-0.9,4.7-0.9c3.3,0,6.1,1.2,8.3,3.4c1.9,1.9,2.9,4.8,2.9,8.6V67.8z"/>
			</g>
		</g>
		<g>
			<g>
				<path class="st7" d="M81.8,77.3H83V88h-1.2V77.3z"/>
				<path class="st7" d="M87.4,77.3h1.1l6.7,8.6v-8.6h1.2V88h-1l-6.9-8.8V88h-1.2V77.3z"/>
				<path class="st7" d="M100.7,77.3h7.7v1.1H102v3.8h5.8v1.1H102V88h-1.2V77.3z"/>
				<path class="st7" d="M110.9,82.7L110.9,82.7c0-3,2.2-5.6,5.5-5.6s5.4,2.6,5.4,5.5c0,0,0,0,0,0c0,2.9-2.2,5.5-5.5,5.5
					C113.1,88.2,110.9,85.6,110.9,82.7z M120.5,82.7L120.5,82.7c0-2.5-1.8-4.4-4.2-4.4c-2.4,0-4.2,2-4.2,4.4v0
					c0,2.4,1.8,4.4,4.2,4.4S120.5,85.1,120.5,82.7z"/>
				<path class="st7" d="M125.2,77.3h4.6c1.3,0,2.4,0.4,3,1.1c0.5,0.5,0.8,1.3,0.8,2.1v0c0,1.8-1.2,2.8-2.9,3.1L134,88h-1.5
					l-3.1-4.2h0h-3V88h-1.2V77.3z M129.7,82.8c1.6,0,2.7-0.8,2.7-2.2v0c0-1.3-1-2.1-2.7-2.1h-3.3v4.3H129.7z"/>
				<path class="st7" d="M137.5,77.3h1.2l3.9,5.8l3.9-5.8h1.2V88h-1.2v-8.7l-3.9,5.7h-0.1l-3.9-5.7V88h-1.2V77.3z"/>
				<path class="st7" d="M155.9,77.2h1.1l4.9,10.8h-1.3l-1.3-2.8h-5.8l-1.3,2.8h-1.2L155.9,77.2z M158.9,84.1l-2.4-5.5l-2.4,5.5
					H158.9z"/>
				<path class="st7" d="M166.8,78.4h-3.6v-1.1h8.4v1.1H168V88h-1.2V78.4z"/>
				<path class="st7" d="M175.2,77.3h1.2V88h-1.2V77.3z"/>
				<path class="st7" d="M180.3,82.7L180.3,82.7c0-3,2.2-5.6,5.5-5.6s5.4,2.6,5.4,5.5c0,0,0,0,0,0c0,2.9-2.2,5.5-5.5,5.5
					S180.3,85.6,180.3,82.7z M190,82.7L190,82.7c0-2.5-1.8-4.4-4.2-4.4s-4.2,2-4.2,4.4v0c0,2.4,1.8,4.4,4.2,4.4S190,85.1,190,82.7z"
					/>
				<path class="st7" d="M194.6,77.3h1.1l6.7,8.6v-8.6h1.2V88h-1l-6.9-8.8V88h-1.2V77.3z"/>
			</g>
			<g>
				<path class="st7" d="M81.8,77.3H83V88h-1.2V77.3z"/>
				<path class="st7" d="M87.4,77.3h1.1l6.7,8.6v-8.6h1.2V88h-1l-6.9-8.8V88h-1.2V77.3z"/>
				<path class="st7" d="M100.7,77.3h7.7v1.1H102v3.8h5.8v1.1H102V88h-1.2V77.3z"/>
				<path class="st7" d="M110.9,82.7L110.9,82.7c0-3,2.2-5.6,5.5-5.6s5.4,2.6,5.4,5.5c0,0,0,0,0,0c0,2.9-2.2,5.5-5.5,5.5
					C113.1,88.2,110.9,85.6,110.9,82.7z M120.5,82.7L120.5,82.7c0-2.5-1.8-4.4-4.2-4.4c-2.4,0-4.2,2-4.2,4.4v0
					c0,2.4,1.8,4.4,4.2,4.4S120.5,85.1,120.5,82.7z"/>
				<path class="st7" d="M125.2,77.3h4.6c1.3,0,2.4,0.4,3,1.1c0.5,0.5,0.8,1.3,0.8,2.1v0c0,1.8-1.2,2.8-2.9,3.1L134,88h-1.5
					l-3.1-4.2h0h-3V88h-1.2V77.3z M129.7,82.8c1.6,0,2.7-0.8,2.7-2.2v0c0-1.3-1-2.1-2.7-2.1h-3.3v4.3H129.7z"/>
				<path class="st7" d="M137.5,77.3h1.2l3.9,5.8l3.9-5.8h1.2V88h-1.2v-8.7l-3.9,5.7h-0.1l-3.9-5.7V88h-1.2V77.3z"/>
				<path class="st7" d="M155.9,77.2h1.1l4.9,10.8h-1.3l-1.3-2.8h-5.8l-1.3,2.8h-1.2L155.9,77.2z M158.9,84.1l-2.4-5.5l-2.4,5.5
					H158.9z"/>
				<path class="st7" d="M166.8,78.4h-3.6v-1.1h8.4v1.1H168V88h-1.2V78.4z"/>
				<path class="st7" d="M175.2,77.3h1.2V88h-1.2V77.3z"/>
				<path class="st7" d="M180.3,82.7L180.3,82.7c0-3,2.2-5.6,5.5-5.6s5.4,2.6,5.4,5.5c0,0,0,0,0,0c0,2.9-2.2,5.5-5.5,5.5
					S180.3,85.6,180.3,82.7z M190,82.7L190,82.7c0-2.5-1.8-4.4-4.2-4.4s-4.2,2-4.2,4.4v0c0,2.4,1.8,4.4,4.2,4.4S190,85.1,190,82.7z"
					/>
				<path class="st7" d="M194.6,77.3h1.1l6.7,8.6v-8.6h1.2V88h-1l-6.9-8.8V88h-1.2V77.3z"/>
			</g>
		</g>
		<circle class="st8" cx="47.7" cy="82.8" r="6.8"/>
		<circle class="st9" cx="28.6" cy="82.8" r="6.8"/>
		<circle class="st10" cx="66.8" cy="82.8" r="6.8"/>
		<g>
			<g>
				<path class="st7" d="M46.6,67.8H21.8V23.4l9.2-1.6v37.6h15.6V67.8z"/>
			</g>
			<g>
				<path class="st7" d="M46.6,67.8H21.8V23.4l9.2-1.6v37.6h15.6V67.8z"/>
			</g>
		</g>
		<g>
			<g>
				<path class="st7" d="M207.6,67.8H199V51.1c0-3.6-0.4-6.1-1.3-7.4c-0.9-1.3-2.2-1.9-3.9-1.9c-1.3,0-2.6,0.4-3.6,1.2
					c-1.1,0.8-1.9,1.8-2.4,3.2c-0.5,1.4-0.8,3.6-0.8,6.7v14.9h-8.6V51.8c0-2.9-0.2-5-0.6-6.2c-0.4-1.3-1-2.2-1.9-2.8
					c-0.8-0.6-1.8-0.9-3-0.9c-1.3,0-2.5,0.4-3.6,1.2c-1.1,0.8-1.9,1.9-2.4,3.3c-0.5,1.4-0.8,3.7-0.8,6.8v14.7h-8.6V34.9h8.6v3.4
					c1.3-1.4,2.8-2.4,4.3-3.1c1.7-0.8,3.6-1.2,5.7-1.2c2.1,0,3.9,0.5,5.6,1.5c1.6,1,2.9,2.3,3.9,4.1c1.3-1.8,2.8-3.2,4.6-4.1
					c1.9-1,4-1.5,6.3-1.5c2.3,0,4.4,0.6,6.2,1.6c1.8,1.1,3.1,2.5,3.9,4.3c0.8,1.8,1.2,4.6,1.2,8.5V67.8z"/>
			</g>
			<g>
				<path class="st7" d="M207.6,67.8H199V51.1c0-3.6-0.4-6.1-1.3-7.4c-0.9-1.3-2.2-1.9-3.9-1.9c-1.3,0-2.6,0.4-3.6,1.2
					c-1.1,0.8-1.9,1.8-2.4,3.2c-0.5,1.4-0.8,3.6-0.8,6.7v14.9h-8.6V51.8c0-2.9-0.2-5-0.6-6.2c-0.4-1.3-1-2.2-1.9-2.8
					c-0.8-0.6-1.8-0.9-3-0.9c-1.3,0-2.5,0.4-3.6,1.2c-1.1,0.8-1.9,1.9-2.4,3.3c-0.5,1.4-0.8,3.7-0.8,6.8v14.7h-8.6V34.9h8.6v3.4
					c1.3-1.4,2.8-2.4,4.3-3.1c1.7-0.8,3.6-1.2,5.7-1.2c2.1,0,3.9,0.5,5.6,1.5c1.6,1,2.9,2.3,3.9,4.1c1.3-1.8,2.8-3.2,4.6-4.1
					c1.9-1,4-1.5,6.3-1.5c2.3,0,4.4,0.6,6.2,1.6c1.8,1.1,3.1,2.5,3.9,4.3c0.8,1.8,1.2,4.6,1.2,8.5V67.8z"/>
			</g>
		</g>
		<g>
			<g>
				<path class="st7" d="M226.6,68.6c-4.2,0-7.9-1.7-11-4.9c-3.1-3.3-4.6-7.4-4.6-12.3c0-5,1.5-9.2,4.5-12.5c3-3.2,6.7-4.9,10.9-4.9
					c2,0,3.8,0.4,5.6,1.1c1.6,0.7,3.1,1.7,4.4,3v-3.3h8.6v32.9h-8.6v-3.2c-1.5,1.4-3,2.4-4.5,3C230.3,68.2,228.5,68.6,226.6,68.6z
					 M228.1,42c-2.4,0-4.5,0.9-6.1,2.6c-1.6,1.7-2.4,4-2.4,6.7c0,2.7,0.8,5,2.5,6.8c1.6,1.8,3.7,2.6,6.1,2.6c2.5,0,4.6-0.9,6.2-2.6
					c1.6-1.7,2.5-4,2.5-6.8c0-2.8-0.8-5-2.5-6.7C232.7,42.8,230.6,42,228.1,42z"/>
			</g>
			<g>
				<path class="st7" d="M226.6,68.6c-4.2,0-7.9-1.7-11-4.9c-3.1-3.3-4.6-7.4-4.6-12.3c0-5,1.5-9.2,4.5-12.5c3-3.2,6.7-4.9,10.9-4.9
					c2,0,3.8,0.4,5.6,1.1c1.6,0.7,3.1,1.7,4.4,3v-3.3h8.6v32.9h-8.6v-3.2c-1.5,1.4-3,2.4-4.5,3C230.3,68.2,228.5,68.6,226.6,68.6z
					 M228.1,42c-2.4,0-4.5,0.9-6.1,2.6c-1.6,1.7-2.4,4-2.4,6.7c0,2.7,0.8,5,2.5,6.8c1.6,1.8,3.7,2.6,6.1,2.6c2.5,0,4.6-0.9,6.2-2.6
					c1.6-1.7,2.5-4,2.5-6.8c0-2.8-0.8-5-2.5-6.7C232.7,42.8,230.6,42,228.1,42z"/>
			</g>
		</g>
		<g>
			<g>
				<g>
					<path class="st7" d="M134.5,68.6c-4.2,0-7.9-1.7-11-4.9c-3.1-3.3-4.6-7.4-4.6-12.3c0-5,1.5-9.2,4.5-12.5
						c3-3.2,6.7-4.9,10.9-4.9c2,0,3.8,0.4,5.6,1.1c1.6,0.7,3.1,1.7,4.4,3V23.3l8.6-1.5v45.9h-8.6v-3.2c-1.5,1.4-3,2.4-4.5,3
						C138.2,68.2,136.4,68.6,134.5,68.6z M136,42c-2.4,0-4.5,0.9-6.1,2.6c-1.6,1.7-2.4,4-2.4,6.7c0,2.7,0.8,5,2.5,6.8
						c1.6,1.8,3.7,2.6,6.1,2.6c2.5,0,4.6-0.9,6.2-2.6l0,0c1.6-1.7,2.5-4,2.5-6.8c0-2.8-0.8-5-2.5-6.7C140.6,42.8,138.5,42,136,42z"
						/>
				</g>
			</g>
			<g>
				<g>
					<path class="st7" d="M134.5,68.6c-4.2,0-7.9-1.7-11-4.9c-3.1-3.3-4.6-7.4-4.6-12.3c0-5,1.5-9.2,4.5-12.5
						c3-3.2,6.7-4.9,10.9-4.9c2,0,3.8,0.4,5.6,1.1c1.6,0.7,3.1,1.7,4.4,3V23.3l8.6-1.5v45.9h-8.6v-3.2c-1.5,1.4-3,2.4-4.5,3
						C138.2,68.2,136.4,68.6,134.5,68.6z M136,42c-2.4,0-4.5,0.9-6.1,2.6c-1.6,1.7-2.4,4-2.4,6.7c0,2.7,0.8,5,2.5,6.8
						c1.6,1.8,3.7,2.6,6.1,2.6c2.5,0,4.6-0.9,6.2-2.6l0,0c1.6-1.7,2.5-4,2.5-6.8c0-2.8-0.8-5-2.5-6.7C140.6,42.8,138.5,42,136,42z"
						/>
				</g>
			</g>
		</g>
		<g>
			<g>
				<path class="st7" d="M305.3,67.8h-10.7l-0.1-0.1l-12.2-13.2v13.3h-8.6V23.3l8.6-1.5v24.7l10.5-11.7h10.8l-14.2,15.8L305.3,67.8z
					"/>
			</g>
			<g>
				<path class="st7" d="M305.3,67.8h-10.7l-0.1-0.1l-12.2-13.2v13.3h-8.6V23.3l8.6-1.5v24.7l10.5-11.7h10.8l-14.2,15.8L305.3,67.8z
					"/>
			</g>
		</g>
		<g>
			<g>
				<path class="st7" d="M258.3,67.8h-8.5V34.9h7.4v3.4c0.7-1.3,1.6-2.3,2.7-3c0.1,0,5.9-3.9,11.2,1.7l0.1,0.1L268,43l-0.5-0.4
					c-0.2-0.1-4.4-3.1-7.9,1.6c-1,1.4-1.3,4.2-1.3,8.6l0,1.6V67.8z"/>
			</g>
			<g>
				<path class="st7" d="M258.3,67.8h-8.5V34.9h7.4v3.4c0.7-1.3,1.6-2.3,2.7-3c0.1,0,5.9-3.9,11.2,1.7l0.1,0.1L268,43l-0.5-0.4
					c-0.2-0.1-4.4-3.1-7.9,1.6c-1,1.4-1.3,4.2-1.3,8.6l0,1.6V67.8z"/>
			</g>
		</g>
	</g>
</g>
<g id="Guides">
</g>
<g id="R" class="st0">
	<g class="st11">
		<path class="st7" d="M311.9,26.1c0,0.8-0.2,1.5-0.6,2.1s-0.9,1.2-1.5,1.5s-1.4,0.6-2.1,0.6c-0.7,0-1.5-0.2-2.1-0.6
			s-1.2-0.9-1.5-1.5c-0.4-0.7-0.6-1.4-0.6-2.1c0-0.8,0.2-1.5,0.6-2.1c0.4-0.7,0.9-1.2,1.5-1.6c0.7-0.4,1.4-0.6,2.1-0.6
			s1.5,0.2,2.1,0.6c0.7,0.4,1.2,0.9,1.5,1.6C311.7,24.6,311.9,25.3,311.9,26.1z M311.3,26.1c0-0.6-0.2-1.3-0.5-1.8
			c-0.3-0.6-0.8-1-1.3-1.3s-1.2-0.5-1.8-0.5c-0.6,0-1.3,0.2-1.8,0.5s-1,0.8-1.3,1.3c-0.3,0.6-0.5,1.2-0.5,1.8c0,0.6,0.2,1.3,0.5,1.8
			c0.3,0.6,0.8,1,1.3,1.3s1.2,0.5,1.8,0.5c0.6,0,1.2-0.2,1.8-0.5c0.6-0.3,1-0.8,1.3-1.3C311.1,27.3,311.3,26.7,311.3,26.1z
			 M305.9,23.6h2c0.5,0,0.8,0,1,0.1c0.2,0.1,0.4,0.3,0.5,0.5c0.1,0.2,0.2,0.5,0.2,0.8c0,0.2,0,0.5-0.1,0.6c-0.1,0.1-0.2,0.3-0.5,0.4
			c0.2,0.1,0.4,0.2,0.4,0.4s0.1,0.4,0.1,0.7v0.5c0,0.3,0.1,0.5,0.2,0.6l0.1,0.1H309c-0.1-0.2-0.1-0.4-0.1-0.7l0-0.6
			c0-0.2,0-0.4-0.1-0.5c-0.1-0.1-0.1-0.2-0.2-0.2c-0.1,0-0.3-0.1-0.6-0.1h-1.2v2h-0.8V23.6z M306.7,24.3v1.4h1.2
			c0.4,0,0.6,0,0.7-0.1c0.2-0.1,0.3-0.3,0.3-0.6c0-0.2-0.1-0.4-0.2-0.5c-0.1-0.1-0.4-0.2-0.8-0.2H306.7z"/>
	</g>
</g>
<g id="TM" class="st0">
</g>
</svg>
