<?xml version="1.0" encoding="UTF-8"?>
<svg xmlns="http://www.w3.org/2000/svg" viewBox="0 0 42.5 42.5" xml:space="preserve">
<style type="text/css">
	.st0{fill:#FFFFFF;}
</style>

	<g>
		
			<path class="st0" d="m21.3 0c-11.8 0-21.3 9.5-21.3 21.3s9.5 21.3 21.3 21.3 21.2-9.6 21.2-21.3-9.5-21.3-21.2-21.3zm0 41c-10.9 0-19.8-8.8-19.8-19.7s8.9-19.8 19.8-19.8 19.7 8.9 19.7 19.8-8.8 19.7-19.7 19.7z"></path>
			<path class="st0" d="m27.3 30.9c0 0.1-0.1 0.3-0.2 0.4s-0.3 0.2-0.5 0.2h-12.5c-0.2 0-0.4-0.1-0.5-0.2s-0.2-0.2-0.2-0.4v-19.5c0-0.1 0.1-0.3 0.2-0.4s0.3-0.2 0.5-0.2h12.4c0.2 0 0.4 0.1 0.5 0.2s0.2 0.2 0.2 0.4v5l1-1v-4c0-0.4-0.2-0.8-0.5-1.1s-0.7-0.5-1.1-0.5h-12.5c-0.5 0-0.9 0.2-1.2 0.4-0.3 0.3-0.5 0.7-0.5 1.1v19.6c0 0.4 0.2 0.8 0.5 1.1s0.7 0.4 1.2 0.4h12.4c0.4 0 0.9-0.2 1.2-0.4 0.3-0.3 0.5-0.7 0.5-1.1v-8.9l-1 1v7.9z"></path>
			<path class="st0" d="m32.1 13.8c-0.2-0.2-0.5-0.3-0.7-0.3-0.3 0-0.5 0.1-0.7 0.3l-1.3 1.2-0.4 0.3-10.3 10.2-0.1 0.3-0.4 2.2-0.1 0.7 0.7-0.1 2.3-0.3 0.3-0.1 10.3-10.2 1.5-1.5c0.2-0.2 0.3-0.5 0.3-0.7 0-0.3-0.1-0.5-0.3-0.7l-1.1-1.3zm-11.3 13.5-1.5 0.2 0.2-1.5 9.8-9.7 1.3 1.2-9.8 9.8zm11.7-11.6-1.2 1.2-1.3-1.3 1.2-1.2 1.3 1.3z"></path>
		
	</g>

</svg>
