<?xml version="1.0" encoding="UTF-8"?>
<svg xmlns="http://www.w3.org/2000/svg" viewBox="0 0 28.3 28.3" xml:space="preserve">
<style type="text/css">
	.st0{fill:#2A2623;}
</style>
	
	<g>
		
			<path class="st0" d="m21.5 9.4v0c-0.1-0.1-0.1 0 0 0l-0.9 0.9 0.9 0.9 0.9-0.9s0 0 0 0l-0.9-0.9z"></path>
			<polygon class="st0" points="13 17.7 12.8 18.7 13.9 18.6 21 11.6 20.1 10.7"></polygon>
			<path class="st0" d="m14.2 0c-7.8 0-14.2 6.4-14.2 14.2s6.4 14.2 14.2 14.2 14.2-6.4 14.2-14.2-6.4-14.2-14.2-14.2zm5.1 21.2c0 0.3-0.1 0.6-0.4 0.8-0.2 0.2-0.5 0.3-0.8 0.3h-9c-0.3 0-0.6-0.1-0.8-0.3s-0.4-0.5-0.4-0.8v-14c0-0.3 0.1-0.6 0.4-0.8 0.2-0.3 0.5-0.4 0.8-0.4h8.9c0.3 0 0.6 0.1 0.8 0.3s0.4 0.5 0.4 0.8v2.9l-0.7 0.7v-3.6c0-0.1 0-0.2-0.1-0.3s-0.2-0.1-0.4-0.1h-8.9c-0.1 0-0.2 0.1-0.3 0.1-0.1 0.1-0.2 0.2-0.2 0.3v14c0 0.1 0 0.2 0.1 0.3s0.2 0.1 0.4 0.1h8.9c0.1 0 0.3 0 0.4-0.1s0.1-0.2 0.1-0.3v-5.7l0.7-0.7v6.5zm3.5-10.4-1 1-7.4 7.3-0.2 0.1-1.6 0.2-0.6 0.2 0.1-0.5 0.2-1.6 0.1-0.2 7.4-7.2 1.1-1.1c0.1-0.1 0.3-0.2 0.5-0.2s0.4 0.1 0.5 0.2l0.8 0.8c0.3 0 0.3 0.2 0.3 0.4s0 0.4-0.2 0.6z"></path>
		
	</g>

</svg>
