<?xml version="1.0" encoding="UTF-8"?>
<svg xmlns="http://www.w3.org/2000/svg" viewBox="0 0 34 34" xml:space="preserve">
<style type="text/css">
	.st0{fill:#2A2623;}
</style>
	<g>
		<path class="st0" d="m17 0c-9.4 0-17 7.6-17 17s7.6 17 17 17 17-7.6 17-17-7.6-17-17-17zm9.9 23.8h-19.9c-0.3 0-0.5-0.2-0.7-0.4-0.1-0.3-0.1-0.5 0-0.8l9.9-16.2c0.3-0.4 1-0.4 1.3 0l9.8 16c0.2 0.1 0.3 0.3 0.3 0.6 0.1 0.4-0.3 0.8-0.7 0.8z"></path>
		<path class="st0" d="m8.4 22.2h17.1l-8.5-13.9-8.6 13.9zm8.6-1.3c-0.4 0-0.8-0.4-0.8-0.8s0.4-0.8 0.8-0.8 0.8 0.4 0.8 0.8-0.4 0.8-0.8 0.8zm0.7-8v4.8c0 0.4-0.3 0.8-0.8 0.8-0.4 0-0.8-0.3-0.8-0.8v-4.8c0-0.4 0.3-0.8 0.8-0.8s0.8 0.4 0.8 0.8z"></path>
	</g>
</svg>
