<?xml version="1.0" encoding="UTF-8"?>
<svg xmlns="http://www.w3.org/2000/svg" viewBox="0 0 34 34" xml:space="preserve">
<style type="text/css">
	.st0{fill:#2A2623;}
</style>
<switch>

	<g>

			<path class="st0" d="m24.6 11.4s-0.1 0 0 0l-1 1 1 1 1-1-1-1z"></path>
			<polygon class="st0" points="15.1 20.7 15 21.8 16.1 21.7 24 13.9 23 12.9"></polygon>
			<path class="st0" d="m17 0c-9.4 0-17 7.6-17 17s7.6 17 17 17 17-7.6 17-17-7.6-17-17-17zm5.1 24.5c0 0.3-0.2 0.7-0.4 0.9s-0.6 0.4-0.9 0.4h-9.9c-0.4 0-0.7-0.1-0.9-0.4-0.3-0.2-0.4-0.5-0.4-0.9v-15.6c0-0.3 0.2-0.7 0.4-0.9s0.6-0.4 0.9-0.4h9.9c0.4 0 0.7 0.1 0.9 0.4 0.3 0.2 0.4 0.5 0.4 0.9v3.2l-0.8 0.8v-4c0-0.1-0.1-0.2-0.1-0.3-0.1-0.1-0.2-0.1-0.4-0.1h-9.9c-0.2 0-0.3 0.1-0.4 0.1-0.1 0.1-0.1 0.2-0.1 0.3v15.7c0 0.1 0.1 0.2 0.1 0.3 0.1 0.1 0.2 0.1 0.4 0.1h9.9c0.2 0 0.3-0.1 0.4-0.1 0.1-0.1 0.1-0.2 0.1-0.3v-6.3l0.8-0.8v7zm4-11.6-1.3 1.3-8.2 8.1-0.2 0.1-2.4 0.4 0.1-0.5 0.3-1.8 0.1-0.2 8.2-8.1 1.3-1.3c0.2-0.2 0.4-0.2 0.6-0.2s0.4 0.1 0.6 0.2l0.9 0.9c0.2 0.2 0.2 0.4 0.2 0.6s0 0.4-0.2 0.5z"></path>

	</g>
</switch>

</svg>
