<?xml version="1.0" encoding="UTF-8"?>
<svg xmlns="http://www.w3.org/2000/svg" viewBox="0 0 42.5 42.5" xml:space="preserve">
<style type="text/css">
	.st0{fill:#FFF;}
</style>
	<g>

		<path class="st0" d="m21.3 0c-11.8 0-21.3 9.5-21.3 21.3s9.5 21.3 21.3 21.3 21.2-9.6 21.2-21.3-9.5-21.3-21.2-21.3zm0 41c-10.9 0-19.8-8.8-19.8-19.7s8.9-19.8 19.8-19.8 19.7 8.9 19.7 19.8-8.8 19.7-19.7 19.7z"></path>
		<path class="st0" d="m14.4 8.6c-1.8 0-3.3 1.5-3.3 3.3v18.9c0 1.8 1.5 3.3 3.3 3.3h13.8c1.8 0 3.3-1.5 3.3-3.3v-15.2l-6.3-7h-10.8zm15.6 22.1c0 1-0.8 1.9-1.9 1.9h-13.7c-1 0-1.9-0.8-1.9-1.9v-18.9c0-1 0.8-1.9 1.9-1.9h9.7v6.6h5.9v14.2zm-4.5-19.6 3.6 4h-3.6v-4z"></path>
		<path class="st0" d="m19 19.8c0 0.4 0.3 0.7 0.7 0.7h7.9c0.4 0 0.7-0.3 0.7-0.7s-0.3-0.7-0.7-0.7h-7.9c-0.3 0-0.7 0.3-0.7 0.7z"></path>
		<path class="st0" d="m27.7 23.4h-7.9c-0.4 0-0.7 0.3-0.7 0.7s0.3 0.7 0.7 0.7h7.9c0.4 0 0.7-0.3 0.7-0.7s-0.3-0.7-0.7-0.7z"></path>
		<path class="st0" d="m27.7 27.7h-7.9c-0.4 0-0.7 0.3-0.7 0.7s0.3 0.7 0.7 0.7h7.9c0.4 0 0.7-0.3 0.7-0.7s-0.3-0.7-0.7-0.7z"></path>
		<path class="st0" d="m17.4 26.8c-0.2 0-0.4 0.1-0.5 0.2l-1.2 1.2-0.5-0.5c-0.1-0.1-0.3-0.2-0.5-0.2s-0.4 0.1-0.5 0.2c-0.3 0.3-0.3 0.7 0 1l1 1c0.1 0.1 0.3 0.2 0.5 0.2s0.4-0.1 0.5-0.2l1.7-1.7c0.1-0.1 0.2-0.3 0.2-0.5s-0.1-0.4-0.2-0.5c-0.2-0.1-0.4-0.2-0.5-0.2z"></path>
		<path class="st0" d="m17.4 22.5c-0.2 0-0.4 0.1-0.5 0.2l-1.2 1.2-0.5-0.5c-0.1-0.1-0.3-0.2-0.5-0.2s-0.4 0.1-0.5 0.2c-0.2 0.2-0.2 0.4-0.2 0.6s0.1 0.4 0.2 0.5l1 1c0.1 0.1 0.3 0.2 0.5 0.2s0.4-0.1 0.5-0.2l1.7-1.7c0.1-0.1 0.2-0.3 0.2-0.5s-0.1-0.4-0.2-0.5c-0.2-0.2-0.4-0.3-0.5-0.3z"></path>
		<path class="st0" d="m17.4 18.2c-0.2 0-0.4 0.1-0.5 0.2l-1.2 1.2-0.5-0.5c-0.2-0.1-0.4-0.1-0.5-0.1-0.2 0-0.4 0.1-0.5 0.2-0.2 0.1-0.2 0.3-0.2 0.5s0.1 0.4 0.2 0.5l1 1c0.1 0.1 0.3 0.2 0.5 0.2s0.4-0.1 0.5-0.2l1.7-1.7c0.1-0.1 0.2-0.3 0.2-0.5s-0.1-0.4-0.2-0.5c-0.2-0.2-0.4-0.3-0.5-0.3z"></path>

	</g>

</svg>
