<?xml version="1.0" encoding="UTF-8"?>
<svg xmlns="http://www.w3.org/2000/svg" viewBox="0 0 42.5 42.5" xml:space="preserve">
<style type="text/css">
	.st0{fill:#2A2623;}
</style>
	<g>
		<polygon class="st0" points="17,7.4 17,10 19.4,10"></polygon>
		<path class="st0" d="M16.1,6.6H9.6c-0.7,0-1.2,0.6-1.2,1.2v12.6c0,0.7,0.6,1.2,1.2,1.2h9.2c0.7,0,1.2-0.6,1.2-1.2V11h-3.9V6.6z      M11.9,18.6l-1.1,1.1c-0.1,0.1-0.2,0.1-0.3,0.1c-0.1,0-0.2,0-0.3-0.1l-0.7-0.6c-0.2-0.2-0.2-0.5,0-0.7c0.1-0.1,0.2-0.1,0.3-0.1     c0.1,0,0.2,0,0.3,0.1l0.3,0.3l0.8-0.8c0.1-0.1,0.2-0.1,0.3-0.1c0.1,0,0.2,0,0.3,0.1C12,18,12,18.2,12,18.3     C12,18.4,12,18.5,11.9,18.6z M11.9,15.8l-1.1,1.1C10.7,17,10.6,17,10.5,17c-0.1,0-0.2,0-0.3-0.1l-0.7-0.6     c-0.1-0.1-0.1-0.2-0.1-0.3c0-0.1,0-0.2,0.1-0.3c0.1-0.1,0.2-0.1,0.3-0.1c0.1,0,0.2,0,0.3,0.1l0.3,0.3l0.8-0.8     c0.1-0.1,0.2-0.1,0.3-0.1c0.1,0,0.2,0,0.3,0.1c0.1,0.1,0.1,0.2,0.1,0.3C12,15.6,12,15.7,11.9,15.8z M11.9,12.9L10.8,14     c-0.1,0.1-0.2,0.1-0.3,0.1c-0.1,0-0.2,0-0.3-0.1l-0.7-0.6c-0.1-0.1-0.1-0.2-0.1-0.3c0-0.1,0-0.2,0.1-0.3c0.1-0.1,0.2-0.1,0.3-0.1     c0.1,0,0.2,0,0.3,0.1l0.3,0.3l0.8-0.8c0.1-0.1,0.2-0.1,0.3-0.1c0.1,0,0.2,0,0.3,0.1c0.1,0.1,0.1,0.2,0.1,0.3     C12,12.7,12,12.8,11.9,12.9z M18.5,19.3h-5.3c-0.3,0-0.5-0.2-0.5-0.5s0.2-0.5,0.5-0.5h5.3c0.3,0,0.5,0.2,0.5,0.5     S18.7,19.3,18.5,19.3z M18.5,16.5h-5.3c-0.3,0-0.5-0.2-0.5-0.5c0-0.3,0.2-0.5,0.5-0.5h5.3c0.3,0,0.5,0.2,0.5,0.5     C18.9,16.3,18.7,16.5,18.5,16.5z M18.5,12.7c0.3,0,0.5,0.2,0.5,0.5c0,0.3-0.2,0.5-0.5,0.5h-5.3c-0.3,0-0.5-0.2-0.5-0.5     c0-0.3,0.2-0.5,0.5-0.5H18.5z"></path>
		<path class="st0" d="M14.2,0C6.3,0,0,6.3,0,14.2C0,22,6.3,28.3,14.2,28.3S28.3,22,28.3,14.2C28.3,6.3,22,0,14.2,0z M20.9,20.4     c0,1.2-1,2.2-2.2,2.2H9.6c-1.2,0-2.2-1-2.2-2.2V7.8c0-1.2,1-2.2,2.2-2.2h7.2l4.2,4.7V20.4z"></path>
	</g>
</svg>
