<?xml version="1.0" encoding="UTF-8"?>
<svg enable-background="new 0 0 327.1 111.4" version="1.1" viewBox="0 0 327.1 111.4" xml:space="preserve" xmlns="http://www.w3.org/2000/svg">
<style type="text/css">
	.st0{display:none;}
	.st1{display:inline;fill:#FFFFFF;}
	.st2{display:inline;fill:#FFFFFF;}
	.st3{display:inline;fill:#FFFFFF;}
	.st4{display:inline;fill:none;stroke:#FFFFFF;stroke-width:2;}
	.st5{display:inline;fill:#FFFFFF;}
	.st6{display:inline;fill:#FFFFFF;}
	.st7{fill:#FFFFFF;}
	.st8{fill:#FFFFFF;}
	.st9{fill:#FFFFFF;}
	.st10{fill:#FFFFFF;}
	.st11{display:inline;}
</style>
<g class="st0">
	<rect class="st1" x="249.8" y="145.7" width="83.3" height="129.4"/>
	<rect class="st2" x="166.6" y="145.7" width="83.3" height="129.4"/>
	<rect class="st3" y="145.7" width="83.3" height="129.4"/>
	<rect class="st4" x="5.6" y="152.1" width="72.1" height="72.1"/>
	<rect class="st5" x="4.8" y="223.5" width="73.8" height="46.3"/>
	<rect class="st6" x="83.3" y="145.7" width="83.3" height="129.4"/>
	<text class="st11" transform="translate(7.1386 231.63)" font-family="'SourceSansPro-Regular'" font-size="7.5545px"><tspan class="st7" x="0" y="0">Landmark O</tspan><tspan class="st7" x="38.8" y="0">r</tspan><tspan class="st7" x="41.2" y="0">an</tspan><tspan class="st7" x="49.1" y="0">g</tspan><tspan class="st7" x="52.9" y="0">e</tspan></text>
	<text class="st11" transform="translate(7.1386 240.69)" font-family="'SourceSansPro-Light'" font-size="7.5545px"><tspan class="st7" x="0" y="0">C:0  M:58  </tspan><tspan class="st7" x="29.8" y="0">Y</tspan><tspan class="st7" x="33" y="0">:100  K:0</tspan></text>
	<text class="st1" transform="translate(7.1386 249.76)" font-family="'SourceSansPro-Bold'" font-size="7.5545px">R: 233  G:131  B:0</text>
	<text class="st11" transform="translate(7.1386 258.82)" font-family="'SourceSansPro-Light'" font-size="7.5545px"><tspan class="st7" x="0" y="0">P</tspan><tspan class="st7" x="3.8" y="0">an</tspan><tspan class="st7" x="11.5" y="0">t</tspan><tspan class="st7" x="13.8" y="0">one: 144c</tspan></text>
	<text class="st1" transform="translate(7.1386 267.89)" font-family="'SourceSansPro-Light'" font-size="7.5545px">Hex: E98300</text>
	<rect class="st4" x="88.9" y="152.1" width="72.1" height="72.1"/>
	<rect class="st4" x="172.2" y="152.1" width="72.1" height="72.1"/>
	<rect class="st4" x="255.4" y="152.1" width="72.1" height="72.1"/>
	<rect class="st5" x="88" y="223.5" width="73.8" height="46.3"/>
	<rect class="st5" x="171.3" y="223.5" width="73.8" height="46.3"/>
	<rect class="st5" x="254.6" y="223.5" width="73.8" height="46.3"/>
	<text class="st11" transform="translate(90.416 231.63)" font-family="'SourceSansPro-Regular'" font-size="7.5545px"><tspan class="st7" x="0" y="0">Landmark G</tspan><tspan class="st7" x="38.4" y="0">r</tspan><tspan class="st7" x="41" y="0">een</tspan></text>
	<text class="st11" transform="translate(90.416 240.69)" font-family="'SourceSansPro-Light'" font-size="7.5545px"><tspan class="st7" x="0" y="0">C:93  M:10  </tspan><tspan class="st7" x="33.4" y="0">Y</tspan><tspan class="st7" x="36.7" y="0">:77  K:45</tspan></text>
	<text class="st1" transform="translate(90.416 249.76)" font-family="'SourceSansPro-Bold'" font-size="7.5545px">R:0  G:106  B:77</text>
	<text class="st11" transform="translate(90.416 258.82)" font-family="'SourceSansPro-Light'" font-size="7.5545px"><tspan class="st7" x="0" y="0">P</tspan><tspan class="st7" x="3.8" y="0">an</tspan><tspan class="st7" x="11.5" y="0">t</tspan><tspan class="st7" x="13.8" y="0">one: 342c</tspan></text>
	<text class="st1" transform="translate(90.416 267.89)" font-family="'SourceSansPro-Light'" font-size="7.5545px">Hex: 006A4D</text>

	<text class="st1" transform="translate(173.7 231.63)" font-family="'SourceSansPro-Regular'" font-size="7.5545px">Landmark Grey</text>
	<text class="st11" transform="translate(173.7 240.69)" font-family="'SourceSansPro-Light'" font-size="7.5545px"><tspan class="st7" x="0" y="0">C:18  M:22  </tspan><tspan class="st7" x="33.4" y="0">Y</tspan><tspan class="st7" x="36.7" y="0">:29  K:49</tspan></text>
	<text class="st1" transform="translate(173.7 249.76)" font-family="'SourceSansPro-Bold'" font-size="7.5545px">R:146  G:139  B:129</text>
	<text class="st11" transform="translate(173.7 258.82)" font-family="'SourceSansPro-Light'" font-size="7.5545px"><tspan class="st7" x="0" y="0">P</tspan><tspan class="st7" x="3.8" y="0">an</tspan><tspan class="st7" x="11.5" y="0">t</tspan><tspan class="st7" x="13.8" y="0">one: 403c</tspan></text>
	<text class="st1" transform="translate(173.7 267.89)" font-family="'SourceSansPro-Light'" font-size="7.5545px">Hex: 928B81</text>

	<text class="st1" transform="translate(256.98 231.63)" font-family="'SourceSansPro-Regular'" font-size="7.5545px">Landmark Black</text>
	<text class="st1" transform="translate(256.98 240.69)" font-family="'SourceSansPro-Light'" font-size="7.5545px">C:63  M:62  Y:59 K:94</text>
	<text class="st1" transform="translate(256.98 249.76)" font-family="'SourceSansPro-Bold'" font-size="7.5545px">R:42  G:38  B:35</text>
	<text class="st11" transform="translate(256.98 258.82)" font-family="'SourceSansPro-Light'" font-size="7.5545px"><tspan class="st7" x="0" y="0">P</tspan><tspan class="st7" x="3.8" y="0">an</tspan><tspan class="st7" x="11.5" y="0">t</tspan><tspan class="st7" x="13.8" y="0">one: Black C</tspan></text>
	<text class="st1" transform="translate(256.98 267.89)" font-family="'SourceSansPro-Light'" font-size="7.5545px">Hex: 2A2623</text>
</g>
		<path class="st7" d="m63.4 68.6c-4.2 0-7.9-1.7-11-4.9-3.1-3.3-4.6-7.4-4.6-12.3 0-5 1.5-9.2 4.5-12.5 3-3.2 6.7-4.9 10.9-4.9 2 0 3.8 0.4 5.6 1.1 1.6 0.7 3.1 1.7 4.4 3v-3.3h8.6v32.9h-8.6v-3.2c-1.5 1.4-3 2.3-4.5 3-1.6 0.7-3.4 1.1-5.3 1.1zm1.4-26.6c-2.4 0-4.5 0.9-6.1 2.6s-2.4 4-2.4 6.7 0.8 5 2.5 6.8c1.6 1.8 3.7 2.6 6.1 2.6 2.5 0 4.6-0.9 6.2-2.6s2.5-4 2.5-6.8-0.8-5-2.5-6.7c-1.7-1.8-3.8-2.6-6.3-2.6z"/>
		<path class="st7" d="m63.4 68.6c-4.2 0-7.9-1.7-11-4.9-3.1-3.3-4.6-7.4-4.6-12.3 0-5 1.5-9.2 4.5-12.5 3-3.2 6.7-4.9 10.9-4.9 2 0 3.8 0.4 5.6 1.1 1.6 0.7 3.1 1.7 4.4 3v-3.3h8.6v32.9h-8.6v-3.2c-1.5 1.4-3 2.3-4.5 3-1.6 0.7-3.4 1.1-5.3 1.1zm1.4-26.6c-2.4 0-4.5 0.9-6.1 2.6s-2.4 4-2.4 6.7 0.8 5 2.5 6.8c1.6 1.8 3.7 2.6 6.1 2.6 2.5 0 4.6-0.9 6.2-2.6s2.5-4 2.5-6.8-0.8-5-2.5-6.7c-1.7-1.8-3.8-2.6-6.3-2.6z"/>
		<path class="st7" d="m115.6 67.8h-8.5v-14.5c0-3.8-0.2-6.4-0.5-7.7-0.3-1.2-0.9-2.2-1.7-2.8s-1.9-1-3.1-1c-1.6 0-3 0.5-4.1 1.6s-1.9 2.6-2.4 4.5c-0.2 1-0.4 3.2-0.4 6.5v13.2h-8.6v-32.7h8.6v3.1c1.7-1.4 3.3-2.4 4.7-3 1.5-0.6 3.1-0.9 4.7-0.9 3.3 0 6.1 1.2 8.3 3.4 1.9 1.9 2.9 4.8 2.9 8.6v21.7z"/>
		<path class="st7" d="m115.6 67.8h-8.5v-14.5c0-3.8-0.2-6.4-0.5-7.7-0.3-1.2-0.9-2.2-1.7-2.8s-1.9-1-3.1-1c-1.6 0-3 0.5-4.1 1.6s-1.9 2.6-2.4 4.5c-0.2 1-0.4 3.2-0.4 6.5v13.2h-8.6v-32.7h8.6v3.1c1.7-1.4 3.3-2.4 4.7-3 1.5-0.6 3.1-0.9 4.7-0.9 3.3 0 6.1 1.2 8.3 3.4 1.9 1.9 2.9 4.8 2.9 8.6v21.7z"/>
		<path class="st7" d="M81.8,77.3H83V88h-1.2V77.3z"/>
		<path class="st7" d="M87.4,77.3h1.1l6.7,8.6v-8.6h1.2V88h-1l-6.9-8.8V88h-1.2V77.3z"/>
		<path class="st7" d="M100.7,77.3h7.7v1.1H102v3.8h5.8v1.1H102V88h-1.2V77.3z"/>
		<path class="st7" d="m110.9 82.7c0-3 2.2-5.6 5.5-5.6s5.4 2.6 5.4 5.5-2.2 5.5-5.5 5.5c-3.2 0.1-5.4-2.5-5.4-5.4zm9.6 0c0-2.5-1.8-4.4-4.2-4.4s-4.2 2-4.2 4.4 1.8 4.4 4.2 4.4 4.2-2 4.2-4.4z"/>
		<path class="st7" d="m125.2 77.3h4.6c1.3 0 2.4 0.4 3 1.1 0.5 0.5 0.8 1.3 0.8 2.1 0 1.8-1.2 2.8-2.9 3.1l3.3 4.4h-1.5l-3.1-4.2h-3v4.2h-1.2v-10.7zm4.5 5.5c1.6 0 2.7-0.8 2.7-2.2 0-1.3-1-2.1-2.7-2.1h-3.3v4.3h3.3z"/>
		<path class="st7" d="M137.5,77.3h1.2l3.9,5.8l3.9-5.8h1.2V88h-1.2v-8.7l-3.9,5.7h-0.1l-3.9-5.7V88h-1.2V77.3z"/>
		<path class="st7" d="m155.9 77.2h1.1l4.9 10.8h-1.3l-1.3-2.8h-5.8l-1.3 2.8h-1.2l4.9-10.8zm3 6.9-2.4-5.5-2.4 5.5h4.8z"/>
		<path class="st7" d="M166.8,78.4h-3.6v-1.1h8.4v1.1H168V88h-1.2V78.4z"/>
		<path class="st7" d="M175.2,77.3h1.2V88h-1.2V77.3z"/>
		<path class="st7" d="m180.3 82.7c0-3 2.2-5.6 5.5-5.6s5.4 2.6 5.4 5.5-2.2 5.5-5.5 5.5-5.4-2.5-5.4-5.4zm9.7 0c0-2.5-1.8-4.4-4.2-4.4s-4.2 2-4.2 4.4 1.8 4.4 4.2 4.4 4.2-2 4.2-4.4z"/>
		<path class="st7" d="M194.6,77.3h1.1l6.7,8.6v-8.6h1.2V88h-1l-6.9-8.8V88h-1.2V77.3z"/>
		<path class="st7" d="M81.8,77.3H83V88h-1.2V77.3z"/>
		<path class="st7" d="M87.4,77.3h1.1l6.7,8.6v-8.6h1.2V88h-1l-6.9-8.8V88h-1.2V77.3z"/>
		<path class="st7" d="M100.7,77.3h7.7v1.1H102v3.8h5.8v1.1H102V88h-1.2V77.3z"/>
		<path class="st7" d="m110.9 82.7c0-3 2.2-5.6 5.5-5.6s5.4 2.6 5.4 5.5-2.2 5.5-5.5 5.5c-3.2 0.1-5.4-2.5-5.4-5.4zm9.6 0c0-2.5-1.8-4.4-4.2-4.4s-4.2 2-4.2 4.4 1.8 4.4 4.2 4.4 4.2-2 4.2-4.4z"/>
		<path class="st7" d="m125.2 77.3h4.6c1.3 0 2.4 0.4 3 1.1 0.5 0.5 0.8 1.3 0.8 2.1 0 1.8-1.2 2.8-2.9 3.1l3.3 4.4h-1.5l-3.1-4.2h-3v4.2h-1.2v-10.7zm4.5 5.5c1.6 0 2.7-0.8 2.7-2.2 0-1.3-1-2.1-2.7-2.1h-3.3v4.3h3.3z"/>
		<path class="st7" d="M137.5,77.3h1.2l3.9,5.8l3.9-5.8h1.2V88h-1.2v-8.7l-3.9,5.7h-0.1l-3.9-5.7V88h-1.2V77.3z"/>
		<path class="st7" d="m155.9 77.2h1.1l4.9 10.8h-1.3l-1.3-2.8h-5.8l-1.3 2.8h-1.2l4.9-10.8zm3 6.9-2.4-5.5-2.4 5.5h4.8z"/>
		<path class="st7" d="M166.8,78.4h-3.6v-1.1h8.4v1.1H168V88h-1.2V78.4z"/>
		<path class="st7" d="M175.2,77.3h1.2V88h-1.2V77.3z"/>
		<path class="st7" d="m180.3 82.7c0-3 2.2-5.6 5.5-5.6s5.4 2.6 5.4 5.5-2.2 5.5-5.5 5.5-5.4-2.5-5.4-5.4zm9.7 0c0-2.5-1.8-4.4-4.2-4.4s-4.2 2-4.2 4.4 1.8 4.4 4.2 4.4 4.2-2 4.2-4.4z"/>
		<path class="st7" d="M194.6,77.3h1.1l6.7,8.6v-8.6h1.2V88h-1l-6.9-8.8V88h-1.2V77.3z"/>
<circle class="st8" cx="47.7" cy="82.8" r="6.8"/>
<circle class="st9" cx="28.6" cy="82.8" r="6.8"/>
<circle class="st10" cx="66.8" cy="82.8" r="6.8"/>
<path class="st7" d="M46.6,67.8H21.8V23.4l9.2-1.6v37.6h15.6V67.8z"/>
<path class="st7" d="M46.6,67.8H21.8V23.4l9.2-1.6v37.6h15.6V67.8z"/>
<path class="st7" d="m207.6 67.8h-8.6v-16.7c0-3.6-0.4-6.1-1.3-7.4s-2.2-1.9-3.9-1.9c-1.3 0-2.6 0.4-3.6 1.2-1.1 0.8-1.9 1.8-2.4 3.2s-0.8 3.6-0.8 6.7v14.9h-8.6v-16c0-2.9-0.2-5-0.6-6.2-0.4-1.3-1-2.2-1.9-2.8-0.8-0.6-1.8-0.9-3-0.9-1.3 0-2.5 0.4-3.6 1.2s-1.9 1.9-2.4 3.3-0.8 3.7-0.8 6.8v14.7h-8.6v-33h8.6v3.4c1.3-1.4 2.8-2.4 4.3-3.1 1.7-0.8 3.6-1.2 5.7-1.2s3.9 0.5 5.6 1.5c1.6 1 2.9 2.3 3.9 4.1 1.3-1.8 2.8-3.2 4.6-4.1 1.9-1 4-1.5 6.3-1.5s4.4 0.6 6.2 1.6c1.8 1.1 3.1 2.5 3.9 4.3s1.2 4.6 1.2 8.5v19.4z"/>
<path class="st7" d="m207.6 67.8h-8.6v-16.7c0-3.6-0.4-6.1-1.3-7.4s-2.2-1.9-3.9-1.9c-1.3 0-2.6 0.4-3.6 1.2-1.1 0.8-1.9 1.8-2.4 3.2s-0.8 3.6-0.8 6.7v14.9h-8.6v-16c0-2.9-0.2-5-0.6-6.2-0.4-1.3-1-2.2-1.9-2.8-0.8-0.6-1.8-0.9-3-0.9-1.3 0-2.5 0.4-3.6 1.2s-1.9 1.9-2.4 3.3-0.8 3.7-0.8 6.8v14.7h-8.6v-33h8.6v3.4c1.3-1.4 2.8-2.4 4.3-3.1 1.7-0.8 3.6-1.2 5.7-1.2s3.9 0.5 5.6 1.5c1.6 1 2.9 2.3 3.9 4.1 1.3-1.8 2.8-3.2 4.6-4.1 1.9-1 4-1.5 6.3-1.5s4.4 0.6 6.2 1.6c1.8 1.1 3.1 2.5 3.9 4.3s1.2 4.6 1.2 8.5v19.4z"/>
<path class="st7" d="m226.6 68.6c-4.2 0-7.9-1.7-11-4.9-3.1-3.3-4.6-7.4-4.6-12.3 0-5 1.5-9.2 4.5-12.5 3-3.2 6.7-4.9 10.9-4.9 2 0 3.8 0.4 5.6 1.1 1.6 0.7 3.1 1.7 4.4 3v-3.3h8.6v32.9h-8.6v-3.2c-1.5 1.4-3 2.4-4.5 3-1.6 0.7-3.4 1.1-5.3 1.1zm1.5-26.6c-2.4 0-4.5 0.9-6.1 2.6s-2.4 4-2.4 6.7 0.8 5 2.5 6.8c1.6 1.8 3.7 2.6 6.1 2.6 2.5 0 4.6-0.9 6.2-2.6s2.5-4 2.5-6.8-0.8-5-2.5-6.7c-1.7-1.8-3.8-2.6-6.3-2.6z"/>
<path class="st7" d="m226.6 68.6c-4.2 0-7.9-1.7-11-4.9-3.1-3.3-4.6-7.4-4.6-12.3 0-5 1.5-9.2 4.5-12.5 3-3.2 6.7-4.9 10.9-4.9 2 0 3.8 0.4 5.6 1.1 1.6 0.7 3.1 1.7 4.4 3v-3.3h8.6v32.9h-8.6v-3.2c-1.5 1.4-3 2.4-4.5 3-1.6 0.7-3.4 1.1-5.3 1.1zm1.5-26.6c-2.4 0-4.5 0.9-6.1 2.6s-2.4 4-2.4 6.7 0.8 5 2.5 6.8c1.6 1.8 3.7 2.6 6.1 2.6 2.5 0 4.6-0.9 6.2-2.6s2.5-4 2.5-6.8-0.8-5-2.5-6.7c-1.7-1.8-3.8-2.6-6.3-2.6z"/>
<path class="st7" d="m134.5 68.6c-4.2 0-7.9-1.7-11-4.9-3.1-3.3-4.6-7.4-4.6-12.3 0-5 1.5-9.2 4.5-12.5 3-3.2 6.7-4.9 10.9-4.9 2 0 3.8 0.4 5.6 1.1 1.6 0.7 3.1 1.7 4.4 3v-14.8l8.6-1.5v45.9h-8.6v-3.2c-1.5 1.4-3 2.4-4.5 3-1.6 0.7-3.4 1.1-5.3 1.1zm1.5-26.6c-2.4 0-4.5 0.9-6.1 2.6s-2.4 4-2.4 6.7 0.8 5 2.5 6.8c1.6 1.8 3.7 2.6 6.1 2.6 2.5 0 4.6-0.9 6.2-2.6s2.5-4 2.5-6.8-0.8-5-2.5-6.7c-1.7-1.8-3.8-2.6-6.3-2.6z"/>
<path class="st7" d="m134.5 68.6c-4.2 0-7.9-1.7-11-4.9-3.1-3.3-4.6-7.4-4.6-12.3 0-5 1.5-9.2 4.5-12.5 3-3.2 6.7-4.9 10.9-4.9 2 0 3.8 0.4 5.6 1.1 1.6 0.7 3.1 1.7 4.4 3v-14.8l8.6-1.5v45.9h-8.6v-3.2c-1.5 1.4-3 2.4-4.5 3-1.6 0.7-3.4 1.1-5.3 1.1zm1.5-26.6c-2.4 0-4.5 0.9-6.1 2.6s-2.4 4-2.4 6.7 0.8 5 2.5 6.8c1.6 1.8 3.7 2.6 6.1 2.6 2.5 0 4.6-0.9 6.2-2.6s2.5-4 2.5-6.8-0.8-5-2.5-6.7c-1.7-1.8-3.8-2.6-6.3-2.6z"/>
<path class="st7" d="m305.3 67.8h-10.7l-0.1-0.1-12.2-13.2v13.3h-8.6v-44.5l8.6-1.5v24.7l10.5-11.7h10.8l-14.2 15.8 15.9 17.2z"/>
<path class="st7" d="m305.3 67.8h-10.7l-0.1-0.1-12.2-13.2v13.3h-8.6v-44.5l8.6-1.5v24.7l10.5-11.7h10.8l-14.2 15.8 15.9 17.2z"/>
<path class="st7" d="m258.3 67.8h-8.5v-32.9h7.4v3.4c0.7-1.3 1.6-2.3 2.7-3 0.1 0 5.9-3.9 11.2 1.7l0.1 0.1-3.2 5.9-0.5-0.4c-0.2-0.1-4.4-3.1-7.9 1.6-1 1.4-1.3 4.2-1.3 8.6v1.6 13.4z"/>
<path class="st7" d="m258.3 67.8h-8.5v-32.9h7.4v3.4c0.7-1.3 1.6-2.3 2.7-3 0.1 0 5.9-3.9 11.2 1.7l0.1 0.1-3.2 5.9-0.5-0.4c-0.2-0.1-4.4-3.1-7.9 1.6-1 1.4-1.3 4.2-1.3 8.6v1.6 13.4z"/>
<g class="st0">
	<g class="st11">
		<path class="st7" d="m311.9 26.1c0 0.8-0.2 1.5-0.6 2.1s-0.9 1.2-1.5 1.5-1.4 0.6-2.1 0.6-1.5-0.2-2.1-0.6-1.2-0.9-1.5-1.5c-0.4-0.7-0.6-1.4-0.6-2.1 0-0.8 0.2-1.5 0.6-2.1 0.4-0.7 0.9-1.2 1.5-1.6 0.7-0.4 1.4-0.6 2.1-0.6s1.5 0.2 2.1 0.6c0.7 0.4 1.2 0.9 1.5 1.6 0.4 0.6 0.6 1.3 0.6 2.1zm-0.6 0c0-0.6-0.2-1.3-0.5-1.8-0.3-0.6-0.8-1-1.3-1.3s-1.2-0.5-1.8-0.5-1.3 0.2-1.8 0.5-1 0.8-1.3 1.3c-0.3 0.6-0.5 1.2-0.5 1.8s0.2 1.3 0.5 1.8c0.3 0.6 0.8 1 1.3 1.3s1.2 0.5 1.8 0.5 1.2-0.2 1.8-0.5 1-0.8 1.3-1.3c0.3-0.6 0.5-1.2 0.5-1.8zm-5.4-2.5h2c0.5 0 0.8 0 1 0.1s0.4 0.3 0.5 0.5 0.2 0.5 0.2 0.8c0 0.2 0 0.5-0.1 0.6s-0.2 0.3-0.5 0.4c0.2 0.1 0.4 0.2 0.4 0.4s0.1 0.4 0.1 0.7v0.5c0 0.3 0.1 0.5 0.2 0.6l0.1 0.1h-0.8c-0.1-0.2-0.1-0.4-0.1-0.7v-0.6c0-0.2 0-0.4-0.1-0.5s-0.1-0.2-0.2-0.2-0.3-0.1-0.6-0.1h-1.2v2h-0.8v-4.6zm0.8 0.7v1.4h1.2c0.4 0 0.6 0 0.7-0.1 0.2-0.1 0.3-0.3 0.3-0.6 0-0.2-0.1-0.4-0.2-0.5s-0.4-0.2-0.8-0.2h-1.2z"/>
	</g>
</g>

</svg>
