<?xml version="1.0" encoding="utf-8"?>
<!-- Generator: Adobe Illustrator 24.0.1, SVG Export Plug-In . SVG Version: 6.00 Build 0)  -->
<svg xmlns="http://www.w3.org/2000/svg" viewBox="0 0 42.5 42.5" xml:space="preserve">
<style type="text/css">
	.st0{fill:#FFFFFF;}
</style>
	<g>
		<path class="st0" d="M21.3,0C9.5,0,0,9.5,0,21.3s9.5,21.3,21.3,21.3S42.5,33,42.5,21.3S33,0,21.3,0z M21.3,41
			C10.4,41,1.5,32.2,1.5,21.3c0-10.9,8.9-19.8,19.8-19.8C32.2,1.5,41,10.4,41,21.3C41,32.2,32.2,41,21.3,41z"/>
		<path class="st0" d="M29.7,14.8L21,23.5l-4-4c-0.3-0.3-0.8-0.3-1.1,0c-0.3,0.3-0.3,0.8,0,1.1l4.5,4.5c0.1,0.1,0.4,0.2,0.6,0.2
			s0.4-0.1,0.6-0.2l9.3-9.3c0.3-0.3,0.3-0.8,0-1.1C30.5,14.5,30,14.5,29.7,14.8z"/>
		<path class="st0" d="M30.3,21.1c-0.4,0-0.8,0.4-0.8,0.8v5c0,1.4-1.1,2.6-2.6,2.6H15.6c-1.4,0-2.6-1.1-2.6-2.6V15.6
			c0-1.4,1.2-2.6,2.6-2.6h11.3c0.4,0,0.8-0.4,0.8-0.8c0-0.4-0.4-0.8-0.8-0.8H15.6c-2.3,0-4.1,1.8-4.1,4.1v11.3
			c0,2.3,1.9,4.1,4.1,4.1h11.3c2.3,0,4.1-1.8,4.1-4.1v-5C31,21.5,30.7,21.1,30.3,21.1z"/>
	</g>
</svg>
