<?xml version="1.0" encoding="UTF-8"?>
<svg xmlns="http://www.w3.org/2000/svg" viewBox="0 0 42.5 42.5" xml:space="preserve">
<style type="text/css">
	.st0{fill:#FFF;}
</style>
	<g>
		<path class="st0" d="m21.3 0c-11.8 0-21.3 9.5-21.3 21.3s9.5 21.3 21.3 21.3 21.2-9.6 21.2-21.3-9.5-21.3-21.2-21.3zm0 41c-10.9 0-19.8-8.8-19.8-19.7s8.9-19.8 19.8-19.8 19.7 8.9 19.7 19.8-8.8 19.7-19.7 19.7z"></path>
		<path class="st0" d="m10.5 21.3c0-5.9 4.8-10.7 10.7-10.7h0.2l-0.9 0.9c-0.3 0.3-0.3 0.8 0 1.1 0.2 0.2 0.3 0.2 0.5 0.2s0.4-0.1 0.5-0.2l2.1-2.1c0.3-0.3 0.3-0.8 0-1.1l-2.1-2.1c-0.3-0.3-0.8-0.3-1.1 0s-0.3 0.8 0 1.1l1 0.6h-0.2c-6.7 0-12.2 5.5-12.2 12.3 0 3.9 1.9 7.6 5 9.9 0.1 0.1 0.3 0.2 0.4 0.2 0.2 0 0.5-0.1 0.6-0.3 0.2-0.3 0.2-0.8-0.2-1-2.6-2.2-4.3-5.4-4.3-8.8z"></path>
		<path class="st0" d="m19.1 25.7c0.2 0.1 0.4 0.2 0.6 0.2 0.1 0 0.1 0.1 0.1 0.2l0.2 1.8c0 0.3 0.3 0.5 0.5 0.5h1.5c0.3 0 0.5-0.2 0.5-0.5l0.2-1.8c0-0.1 0.1-0.1 0.1-0.2 0.2-0.1 0.4-0.2 0.6-0.2h0.2l1.4 1.1c0.2 0.2 0.5 0.2 0.8 0l1.1-1.1c0.2-0.2 0.2-0.5 0-0.8l-1.1-1.4c0-0.1-0.1-0.1 0-0.2 0.1-0.2 0.2-0.4 0.2-0.6 0-0.1 0.1-0.1 0.2-0.1l1.8-0.2c0.3 0 0.5-0.3 0.5-0.5v-1.5c0-0.3-0.2-0.5-0.5-0.5l-1.8-0.2c-0.1 0-0.1-0.1-0.2-0.1-0.1-0.2-0.2-0.4-0.2-0.6v-0.2l1.1-1.4c0.2-0.2 0.2-0.5 0-0.8l-1.1-1.1c-0.2-0.2-0.5-0.2-0.8 0l-1.4 1.1c-0.1 0-0.1 0.1-0.2 0-0.2-0.1-0.4-0.2-0.6-0.2-0.1 0-0.1-0.1-0.1-0.2l-0.2-1.8c0-0.3-0.3-0.5-0.5-0.5h-1.5c-0.3 0-0.5 0.2-0.5 0.5l-0.2 1.8c0 0.1-0.1 0.1-0.1 0.2-0.2 0.1-0.4 0.2-0.6 0.2h-0.2l-1.4-1.1c-0.2-0.2-0.5-0.2-0.8 0l-1.1 1.1c-0.2 0.2-0.2 0.5 0 0.8l1.1 1.4c0 0.1 0.1 0.1 0 0.2-0.1 0.2-0.2 0.4-0.2 0.6 0 0.1-0.1 0.1-0.2 0.1l-1.7 0.3c-0.3 0-0.5 0.3-0.5 0.5v1.5c0 0.3 0.2 0.5 0.5 0.5l1.8 0.2c0.1 0 0.1 0.1 0.2 0.1 0.1 0.2 0.2 0.4 0.2 0.6v0.2l-1.2 1.4c-0.2 0.2-0.2 0.5 0 0.8l1.1 1.1c0.2 0.2 0.5 0.2 0.8 0l1.4-1.1c0.1-0.1 0.1-0.1 0.2-0.1zm2.2-7.3c1.6 0 2.9 1.3 2.9 2.9s-1.3 2.9-2.9 2.9-2.9-1.3-2.9-2.9 1.3-2.9 2.9-2.9z"></path>
		<path class="st0" d="m28.5 11.4c-0.3-0.2-0.8-0.2-1 0.2s-0.2 0.8 0.2 1c2.8 2 4.4 5.3 4.4 8.7-0.1 5.9-4.9 10.7-10.8 10.7h-0.3l0.9-0.9c0.3-0.3 0.3-0.8 0-1.1s-0.8-0.3-1.1 0l-2.1 2.1c-0.3 0.3-0.3 0.8 0 1.1l2.1 2.1c0.2 0.2 0.3 0.2 0.5 0.2s0.4-0.1 0.5-0.2c0.3-0.3 0.3-0.8 0-1.1l-0.8-0.7h0.2c6.7 0 12.2-5.5 12.2-12.2 0.1-3.9-1.8-7.6-4.9-9.9z"></path>
	</g>
</svg>
