<?xml version="1.0" encoding="UTF-8"?>
<svg xmlns="http://www.w3.org/2000/svg" viewBox="0 0 42.5 42.5" xml:space="preserve">
<style type="text/css">
	.st0{fill:#FFFFFF;}
</style>
	<g>
		<path class="st0" d="m21.3 0c-11.8 0-21.3 9.5-21.3 21.3s9.5 21.3 21.3 21.3 21.2-9.6 21.2-21.3-9.5-21.3-21.2-21.3zm0 41c-10.9 0-19.8-8.8-19.8-19.7s8.9-19.8 19.8-19.8 19.7 8.9 19.7 19.8-8.8 19.7-19.7 19.7z"></path>
		<path class="st0" d="m29.3 10.5h-16c-2 0-3.5 1.5-3.5 3.5v10.4c0 2 1.5 3.5 3.5 3.5h1.2v5.4c0 0.3 0.2 0.5 0.4 0.6h0.2c0.2 0 0.4-0.1 0.5-0.2l4.9-5.8h8.8c2 0 3.5-1.5 3.5-3.5v-10.4c0-2-1.5-3.5-3.5-3.5zm2.3 13.9c0 1.3-1 2.3-2.3 2.3h-9.5l-4.1 4.8v-4.8h-2.4c-1.3 0-2.3-1-2.3-2.3v-10.4c0-1.3 1-2.3 2.3-2.3h16c1.3 0 2.3 1 2.3 2.3v10.4z"></path>
		<path class="st0" d="m23.3 21.7h-8.3c-0.3 0-0.6 0.3-0.6 0.6 0 0.4 0.2 0.7 0.6 0.7h8.3c0.4 0 0.7-0.3 0.7-0.7 0-0.3-0.3-0.6-0.7-0.6z"></path>
		<path class="st0" d="m27.5 18.6h-12.5c-0.3 0-0.6 0.3-0.6 0.6s0.3 0.6 0.6 0.6h12.5c0.3 0 0.6-0.3 0.6-0.6 0-0.4-0.3-0.6-0.6-0.6z"></path>
		<path class="st0" d="m27.5 15.4h-12.5c-0.3 0-0.6 0.3-0.6 0.7 0 0.3 0.3 0.6 0.6 0.6h12.5c0.3 0 0.6-0.3 0.6-0.6 0-0.4-0.3-0.7-0.6-0.7z"></path>
	</g>
</svg>
