<?xml version="1.0" encoding="UTF-8"?>
<svg xmlns="http://www.w3.org/2000/svg" viewBox="0 0 42.5 42.5" xml:space="preserve">
<style type="text/css">
	.st0{fill:#FFF;}
</style>	
	<g>
			<path class="st0" d="m21.3 0c-11.8 0-21.3 9.5-21.3 21.3s9.5 21.3 21.3 21.3 21.2-9.6 21.2-21.3-9.5-21.3-21.2-21.3zm0 41c-10.9 0-19.8-8.8-19.8-19.7s8.9-19.8 19.8-19.8 19.7 8.9 19.7 19.8-8.8 19.7-19.7 19.7z"></path>
			<path class="st0" d="m20.6 15.1c0.8 0 1.5-0.3 2-0.8s0.8-1.2 0.8-2-0.3-1.5-0.8-2-1.2-0.8-2-0.8-1.5 0.3-2 0.8-0.8 1.2-0.8 2 0.3 1.5 0.8 2 1.2 0.8 2 0.8z"></path>
			<path class="st0" d="m25.9 29.8-0.7-0.1c-0.8-0.1-1-0.3-1-0.3s-0.1-0.1-0.1-0.2-0.1-0.4-0.1-1.3v-1.2-9.8c0-0.2-0.2-0.4-0.4-0.4l-6.4 0.1c-0.2 0-0.4 0.2-0.4 0.4l-0.1 2c0 0.2 0.2 0.4 0.4 0.5l0.8 0.1c0.5 0 0.6 0.1 0.6 0.1s0.1 0 0.2 0.2c0 0.1 0.1 0.2 0.2 0.5 0 0.3 0.1 0.9 0.1 2.2v4.1c0 0.9 0 1.6-0.1 2.1 0 0.5-0.1 0.7-0.1 0.7l-0.1 0.2s-0.2 0.1-0.9 0.2l-0.8 0.1c-0.2 0-0.4 0.2-0.4 0.4v2.1c0 0.2 0.2 0.4 0.4 0.4h9.1c0.2 0 0.4-0.2 0.4-0.4v-2c-0.3-0.5-0.4-0.7-0.6-0.7z"></path>
	</g>
</svg>
