<?xml version="1.0" encoding="UTF-8"?>
<svg xmlns="http://www.w3.org/2000/svg" viewBox="0 0 28.3 28.3" xml:space="preserve">
<style type="text/css">
	.st0{fill:#2A2623;}
</style>

	<g>
		<path class="st0" d="m14.2 0c-7.8 0-14.2 6.4-14.2 14.2s6.4 14.2 14.2 14.2 14.2-6.4 14.2-14.2-6.4-14.2-14.2-14.2zm-2 5.9c0.4-0.4 0.9-0.6 1.5-0.6s1.1 0.2 1.5 0.6 0.6 0.9 0.6 1.5-0.2 1.1-0.6 1.5-0.9 0.6-1.5 0.6-1.1-0.2-1.5-0.6-0.6-0.9-0.6-1.5 0.2-1.1 0.6-1.5zm5.6 16c0 0.2-0.1 0.3-0.3 0.3h-6.7c-0.2 0-0.3-0.1-0.3-0.3v-1.5c0-0.2 0.1-0.3 0.3-0.3l0.6-0.1c0.5-0.1 0.7-0.2 0.7-0.2l0.1-0.1s0.1-0.2 0.1-0.5v-1.5-3c0-1 0-1.4-0.1-1.6 0-0.2-0.1-0.3-0.1-0.4l-0.1-0.1s-0.1-0.1-0.4-0.1h-0.6c-0.2 0-0.3-0.2-0.3-0.3l0.1-1.5c0-0.2 0.1-0.3 0.3-0.3l4.7-0.1c0.2 0 0.3 0.1 0.3 0.3v7.2 0.9c0 0.6 0 0.9 0.1 1 0 0.1 0.1 0.1 0.1 0.1s0.2 0.1 0.7 0.2l0.5 0.1c0.1 0 0.3 0.2 0.3 0.3v1.5z"></path>
	</g>


</svg>

