<?xml version="1.0" encoding="utf-8"?>
<!-- Generator: Adobe Illustrator 24.3.0, SVG Export Plug-In . SVG Version: 6.00 Build 0)  -->
<svg version="1.1" id="Layer_1" xmlns="http://www.w3.org/2000/svg" xmlns:xlink="http://www.w3.org/1999/xlink" x="0px" y="0px"
	 viewBox="0 0 1500 300" style="enable-background:new 0 0 1500 300;" xml:space="preserve">
<style type="text/css">
	.st0{fill:#E98300;}
	.st1{fill:#FFFFFF;}
</style>
<g>
	<path class="st0" d="M811.7,102.9h52.6v5.8h-45.9v36.3h38.5v5.8h-38.5V193h47.3v5.8h-54V102.9z"/>
	<path class="st0" d="M879.8,181.5c7,7.9,17,13,28.1,13c14.7,0,23.9-7.9,23.9-19.2c0-11.9-7.7-15.9-17.2-20.1l-14.6-6.6
		c-8.4-3.6-19.5-9.6-19.5-23.9c0-13.8,11.9-23.6,28-23.6c11.5,0,20.8,5.2,26.7,11.5l-3.8,4.5c-5.7-6-13.3-9.9-22.9-9.9
		c-12.7,0-21.3,6.7-21.3,17.2c0,11.1,9.6,15.3,16.6,18.5l14.6,6.4c10.8,4.8,20.2,10.8,20.2,25.5c0,14.7-12.1,25.8-30.7,25.8
		c-14,0-24.9-6-32.5-14.4L879.8,181.5z"/>
	<path class="st0" d="M991.8,101.1c12.8,0,21,6.1,26.1,11.5l-3.9,4.4c-5-5.4-11.7-9.8-22.1-9.8c-22,0-35.5,16.8-35.5,43.4
		s12.8,43.8,34.7,43.8c8.7,0,16.9-2.6,21.6-7.3v-29.9h-23v-5.7h29.4v38c-6,6.4-15.9,10.9-28.5,10.9c-24.6,0-41.1-19.4-41.1-50
		C949.3,120.2,966.3,101.1,991.8,101.1z"/>
	<path class="st0" d="M1066.5,181.5c7,7.9,17,13,28.1,13c14.7,0,23.9-7.9,23.9-19.2c0-11.9-7.7-15.9-17.2-20.1l-14.6-6.6
		c-8.4-3.6-19.5-9.6-19.5-23.9c0-13.8,11.9-23.6,28-23.6c11.5,0,20.8,5.2,26.7,11.5l-3.8,4.5c-5.7-6-13.3-9.9-22.9-9.9
		c-12.7,0-21.3,6.7-21.3,17.2c0,11.1,9.6,15.3,16.6,18.5l14.6,6.4c10.8,4.8,20.2,10.8,20.2,25.5c0,14.7-12.1,25.8-30.7,25.8
		c-14,0-24.9-6-32.5-14.4L1066.5,181.5z"/>
	<path class="st0" d="M1168.6,127.2c9.6,0,15.9,4.2,20.5,8.6l-3.8,4.5c-4.5-4.2-9.8-7.4-16.6-7.4c-14.3,0-25.3,12.7-25.3,31.2
		c0,18.4,10,30.9,25.3,30.9c7.4,0,13.8-3.6,18.6-8l3.3,4.4c-6,5.4-13.4,9.3-22.3,9.3c-18.1,0-31.8-13.4-31.8-36.6
		C1136.7,140.6,1151.5,127.2,1168.6,127.2z"/>
	<path class="st0" d="M1203.7,128.9h5.5l0.6,13h0.4c4.7-8.6,11.5-14.7,19.8-14.7c2.6,0,4.7,0.3,7,1.5l-1.5,5.8
		c-2.3-0.9-3.6-1.2-6.4-1.2c-6.3,0-13.7,4.8-19.1,17.9v47.6h-6.4V128.9z"/>
	<path class="st0" d="M1269.8,127.2c16.6,0,26.8,11.8,26.8,32.3c0,1.7,0,3.5-0.3,5.2h-50.4c0.3,17.6,10.6,30.3,26.4,30.3
		c7.6,0,13.5-2.5,18.8-6.3l2.6,5c-5.5,3.4-11.8,6.8-22,6.8c-17.9,0-32.3-13.7-32.3-36.6S1254.2,127.2,1269.8,127.2z M1290.4,159.8
		c0-17.9-8-27.1-20.5-27.1c-11.9,0-22.6,10.3-24,27.1H1290.4z"/>
	<path class="st0" d="M1338.1,127.2c16.6,0,26.8,11.8,26.8,32.3c0,1.7,0,3.5-0.3,5.2h-50.4c0.3,17.6,10.6,30.3,26.4,30.3
		c7.6,0,13.5-2.5,18.8-6.3l2.6,5c-5.5,3.4-11.8,6.8-22,6.8c-17.9,0-32.3-13.7-32.3-36.6S1322.5,127.2,1338.1,127.2z M1358.8,159.8
		c0-17.9-8-27.1-20.5-27.1c-11.9,0-22.6,10.3-24,27.1H1358.8z"/>
	<path class="st0" d="M1380.3,128.9h5.5l0.6,10.8h0.4c7.1-7.1,14.4-12.5,24-12.5c14.4,0,21.1,8.7,21.1,26.8v44.9h-6.4v-44
		c0-14.9-4.7-21.8-16-21.8c-8.3,0-14.3,4.4-22.9,13.1v52.7h-6.4V128.9z"/>
</g>
<g>
	<g>
		<g>
			<path class="st1" d="M497.2,199h-18.5v-71.4h16.1v7.4c1.6-2.7,3.5-4.9,5.8-6.4c0.1-0.1,12.8-8.4,24.3,3.7l0.2,0.2l-6.9,12.9
				l-1.1-0.8c-0.4-0.3-9.6-6.7-17.2,3.4c-2.3,3-2.7,9.1-2.7,18.6l0.1,3.4V199z"/>
		</g>
		<g>
			<path class="st1" d="M497.2,199h-18.5v-71.4h16.1v7.4c1.6-2.7,3.5-4.9,5.8-6.4c0.1-0.1,12.8-8.4,24.3,3.7l0.2,0.2l-6.9,12.9
				l-1.1-0.8c-0.4-0.3-9.6-6.7-17.2,3.4c-2.3,3-2.7,9.1-2.7,18.6l0.1,3.4V199z"/>
		</g>
	</g>
	<g>
		<path class="st1" d="M769.1,199h-19.3v-31.4c0-8.1-0.4-13.6-1.1-16.2c-0.7-2.5-1.8-4.4-3.5-5.6c-1.7-1.3-3.7-1.9-6.2-1.9
			c-3.3,0-6,1.1-8.3,3.2c-2.3,2.2-4,5.3-4.9,9.2c-0.5,2.1-0.7,6.7-0.7,13.8V199h-19.5v-71.3h19.5v5.9c3.3-2.6,6.4-4.5,9.2-5.6
			c3.3-1.3,6.7-2,10.2-2c7.1,0,13.3,2.5,18.2,7.5c4.2,4.3,6.3,10.6,6.3,18.8V199z"/>
	</g>
	<g>
		<path class="st1" d="M542.1,122.6c3,0,5.5-1.1,7.7-3.2c2.1-2.1,3.2-4.8,3.2-7.8c0-3.1-1.1-5.7-3.2-7.9c-2.1-2.2-4.7-3.3-7.7-3.3
			s-5.6,1.1-7.7,3.2c-2.1,2.1-3.2,4.7-3.2,7.7c0,3.1,1.1,5.8,3.2,8C536.5,121.5,539.1,122.6,542.1,122.6z"/>
		<rect x="532.2" y="127.6" class="st1" width="19.5" height="71.3"/>
	</g>
	<path class="st1" d="M465.8,144.1c-3.3-5.7-8-10.3-13.9-13.7c-5.9-3.3-12.3-5-18.9-5c-9.3,0-17.6,3.3-24.7,9.7
		c-8.1,7.4-12.2,16.7-12.2,27.8c0,10.3,3.6,19.2,10.8,26.5c7.2,7.2,16,10.9,26.2,10.9c6.9,0,13.3-1.7,19-4.9
		c5.7-3.3,10.3-7.9,13.7-13.7c3.3-5.8,5-12.2,5-18.8C470.8,156.1,469.1,149.8,465.8,144.1z M433.2,182c-5.2,0-9.3-1.7-12.7-5.3
		c-3.3-3.5-5-8.2-5-13.9c0-5.5,1.7-10.1,5.1-13.7c3.4-3.6,7.6-5.3,12.7-5.3c5.3,0,9.4,1.7,12.8,5.2c3.3,3.5,5,8.1,5,13.7
		c0,5.6-1.7,10.3-5.1,13.8C442.6,180.2,438.4,182,433.2,182z"/>
	<path class="st1" d="M692.2,144.1c-3.3-5.7-8-10.3-13.9-13.7c-5.9-3.3-12.3-5-18.9-5c-9.3,0-17.6,3.3-24.7,9.7
		c-8.1,7.4-12.2,16.7-12.2,27.8c0,10.3,3.6,19.2,10.8,26.5c7.2,7.2,16,10.9,26.2,10.9c6.9,0,13.3-1.7,19-4.9
		c5.7-3.3,10.3-7.9,13.7-13.7c3.3-5.8,5-12.2,5-18.8C697.2,156.1,695.5,149.8,692.2,144.1z M659.7,182c-5.2,0-9.3-1.7-12.7-5.3
		c-3.3-3.5-5-8.2-5-13.9c0-5.5,1.7-10.1,5.1-13.7c3.4-3.6,7.6-5.3,12.7-5.3c5.3,0,9.4,1.7,12.8,5.2c3.3,3.5,5,8.1,5,13.7
		c0,5.6-1.7,10.3-5.1,13.8C669,180.2,664.8,182,659.7,182z"/>
	<polygon class="st1" points="369.4,138.6 340.4,138.6 340.4,103.3 320.2,103.3 320.2,199 340.4,199 340.4,158 369.4,158 369.4,199 
		389.6,199 389.6,103.3 369.4,103.3 	"/>
	<g>
		<path class="st1" d="M162.8,122.6c3,0,5.5-1.1,7.7-3.2c2.1-2.1,3.2-4.8,3.2-7.8c0-3.1-1.1-5.7-3.2-7.9c-2.1-2.2-4.7-3.3-7.7-3.3
			c-3,0-5.6,1.1-7.7,3.2c-2.1,2.1-3.2,4.7-3.2,7.7c0,3.1,1.1,5.8,3.2,8C157.1,121.5,159.8,122.6,162.8,122.6z"/>
		<rect x="152.9" y="127.6" class="st1" width="19.5" height="71.3"/>
	</g>
	<path class="st1" d="M226.8,164.9c-2.6-3.6-7.4-7.1-14.2-10.4l-6.4-3.2c-3.3-1.6-4.4-2.5-4.9-3c-0.5-0.6-0.8-1.2-0.8-1.9
		c0-0.9,0.4-1.6,1.2-2.2c0.9-0.7,2.2-1,3.9-1c3.2,0,7,2.1,11.1,6.2l0.8,0.8l12.2-12.2l-0.6-0.8c-2.8-3.8-6.4-6.8-10.5-8.8
		c-4.1-2-8.5-3.1-13.2-3.1c-6.8,0-12.5,2.1-16.9,6.1c-4.4,4.1-6.7,9.1-6.7,14.8c0,8.9,5.8,16.3,17.4,22.1l5.8,2.9
		c4.6,2.3,7,4.7,7,6.9c0,1.1-0.6,2.1-1.7,3c-2.3,1.8-6.4,2.2-11.6-0.6c-2.6-1.4-4.9-3.2-6.8-5.5l-0.8-0.9l-12.1,13.2l0.6,0.7
		c6.2,8.1,14.6,12.3,25,12.3c7.8,0,14.2-2.2,18.9-6.4c4.7-4.3,7.1-9.8,7.1-16.2C230.7,172.8,229.4,168.5,226.8,164.9z"/>
	<polygon class="st1" points="275.7,161.8 306.5,127.6 281.7,127.6 257.7,154.4 257.7,98.9 238.2,101.7 238.2,199 257.7,199 
		257.7,168.8 285.2,198.6 285.6,199 310.1,199 	"/>
	<path class="st1" d="M123.8,156.9c5.5-2.2,9.8-5.3,12.7-9.3c3.1-4.3,4.6-9.7,4.6-16c0-6-1.4-11.3-4.2-15.8
		c-2.8-4.5-6.5-7.7-11.1-9.6c-4.2-1.8-10.9-2.7-20.3-2.8v0h-6.7H78.9V199h20v-39.4h4.5l20.9,39.4h21.9L123.8,156.9z M118.9,137.8
		c-1.9,1.4-5.7,2-11.1,2h-9v-17h8.3c4.6,0,7.7,0.3,9.4,0.9c1.6,0.6,2.8,1.5,3.7,2.9c0.9,1.3,1.4,2.9,1.4,4.7
		C121.7,134.4,120.8,136.5,118.9,137.8z"/>
	<g>
		<path class="st1" d="M565.9,127.3h54.9l-32.2,56.5H619V199h-58l32.4-56.5h-27.4V127.3z"/>
	</g>
</g>
</svg>
