<?xml version="1.0" encoding="UTF-8"?>
<svg xmlns="http://www.w3.org/2000/svg" viewBox="0 0 28.3 28.3" xml:space="preserve">
	<style type="text/css">
		.st0{fill:#2A2623;}
	</style>

	<g>
		<polygon class="st0" points="16.9 20.6 19.2 18 16.9 18"></polygon>
		<path class="st0" d="m13.3 9.4c-1.1 0-2 0.9-2 2s0.9 2 2 2 2-0.9 2-2-0.9-2-2-2z"></path>
		<path class="st0" d="M14.2,0C6.3,0,0,6.3,0,14.2C0,22,6.3,28.3,14.2,28.3S28.3,22,28.3,14.2C28.3,6.3,22,0,14.2,0z M20.7,17.8     l-4,4.5H9.8c-1.2,0-2.1-0.9-2.1-2.1V8.1C7.7,6.9,8.6,6,9.8,6h8.8c1.2,0,2.1,0.9,2.1,2.1V17.8z"></path>
		<path class="st0" d="m18.6 6.9h-8.8c-0.7 0-1.2 0.5-1.2 1.2v12.1c0 0.7 0.5 1.2 1.2 1.2h6.2v-4.2h3.8v-9.1c0-0.7-0.6-1.2-1.2-1.2zm-0.7 9.1c-0.2 0.2-0.5 0.2-0.7 0l-2.2-2.2c-0.5 0.4-1.1 0.6-1.7 0.6-1.6 0-2.9-1.3-2.9-2.9s1.3-2.9 2.9-2.9 2.9 1.3 2.9 2.9c0 0.6-0.2 1.2-0.6 1.7l2.2 2.2c0.3 0.1 0.3 0.4 0.1 0.6z"></path>
	</g>

</svg>
