<?xml version="1.0" encoding="UTF-8"?>
<svg xmlns="http://www.w3.org/2000/svg" viewBox="0 0 42.5 42.5" xml:space="preserve">
<style type="text/css">
	.st0{fill:#FFFFFF;}
</style>
	<g>
		<path class="st0" d="m21.3 0c-11.8 0-21.3 9.5-21.3 21.3s9.5 21.3 21.3 21.3 21.2-9.6 21.2-21.3-9.5-21.3-21.2-21.3zm0 41c-10.9 0-19.8-8.8-19.8-19.7s8.9-19.8 19.8-19.8 19.7 8.9 19.7 19.8-8.8 19.7-19.7 19.7z"></path>
		<path class="st0" d="m28.6 8.6h-13.7c-1.8 0-3.3 1.5-3.3 3.3v18.9c0 1.8 1.5 3.3 3.3 3.3h10.7l6.3-7v-15.3c0-1.8-1.5-3.2-3.3-3.2zm-2.6 22.8v-4h3.6l-3.6 4zm4.5-5.4h-5.9v6.6h-9.7c-1 0-1.9-0.8-1.9-1.9v-18.9c0-1 0.8-1.9 1.9-1.9h13.8c1 0 1.9 0.8 1.9 1.9v14.2z"></path>
		<path class="st0" d="m24.1 19.7c0.6-0.8 0.9-1.7 0.9-2.7 0-2.5-2.1-4.6-4.6-4.6s-4.6 2.1-4.6 4.6 2.1 4.6 4.6 4.6c1 0 1.9-0.3 2.7-0.9l3.5 3.5c0.3 0.3 0.7 0.3 1 0s0.3-0.7 0-1l-3.5-3.5zm-3.8 0.5c-1.8 0-3.2-1.4-3.2-3.2s1.4-3.2 3.2-3.2 3.2 1.4 3.2 3.2-1.4 3.2-3.2 3.2z"></path>
	</g>
</svg>
