<?xml version="1.0" encoding="UTF-8"?>
<svg xmlns="http://www.w3.org/2000/svg" viewBox="0 0 28.3 28.3" xml:space="preserve">
<style type="text/css">
	.st0{fill:#2A2623;}
</style>
	<g>
		<path class="st0" d="m7.6 18.9h13l-6.5-10.6-6.5 10.6zm6.5-1c-0.3 0-0.6-0.3-0.6-0.6s0.3-0.6 0.6-0.6 0.6 0.3 0.6 0.6-0.2 0.6-0.6 0.6zm0.6-6.1v3.6c0 0.3-0.3 0.6-0.6 0.6s-0.6-0.3-0.6-0.6v-3.6c0-0.3 0.3-0.6 0.6-0.6s0.6 0.3 0.6 0.6z"></path>
		<path class="st0" d="m14.2 0c-7.9 0-14.2 6.3-14.2 14.2 0 7.8 6.3 14.1 14.2 14.1s14.1-6.3 14.1-14.1c0-7.9-6.3-14.2-14.1-14.2zm7.5 20h-15.1c-0.2 0-0.4-0.1-0.5-0.3s-0.1-0.4 0-0.6l7.5-12.3c0.2-0.3 0.8-0.3 1 0l7.5 12.2c0.1 0.1 0.2 0.3 0.2 0.4 0 0.4-0.3 0.6-0.6 0.6z"></path>
	</g>
</svg>

