<?xml version="1.0" encoding="UTF-8"?>
<svg xmlns="http://www.w3.org/2000/svg" viewBox="0 0 42.5 42.5" xml:space="preserve">
<style type="text/css">
	.st0{fill:#FFF;}
</style>

	
	<g>
		
			<path class="st0" d="m21.3 0c-11.8 0-21.3 9.5-21.3 21.3s9.5 21.3 21.3 21.3 21.2-9.6 21.2-21.3-9.5-21.3-21.2-21.3zm0 41c-10.9 0-19.8-8.8-19.8-19.7s8.9-19.8 19.8-19.8 19.7 8.9 19.7 19.8-8.8 19.7-19.7 19.7z"></path>
			<path class="st0" d="m18.3 12.6-3.6 3.6-1.5-1.5c-0.2-0.2-0.6-0.2-0.8 0-0.1 0.1-0.2 0.2-0.2 0.4 0 0.1 0.1 0.3 0.2 0.4l1.9 1.9c0.1 0.1 0.2 0.2 0.4 0.2 0.1 0 0.3-0.1 0.4-0.2l3.9-3.9c0.1-0.1 0.2-0.2 0.2-0.4 0-0.1-0.1-0.3-0.2-0.4-0.1-0.3-0.5-0.3-0.7-0.1z"></path>
			<path class="st0" d="m12.4 19.9h4.8c1.1 0 2-0.9 2-2v-2.1c0-0.3-0.2-0.5-0.5-0.5s-0.5 0.2-0.5 0.5v2.1c0 0.5-0.4 0.9-0.9 0.9h-4.8c-0.5 0-0.9-0.4-0.9-0.9v-4.8c0-0.5 0.4-0.9 0.9-0.9h4.8c0.3 0 0.5-0.2 0.5-0.5s-0.3-0.5-0.5-0.5h-4.8c-1.1 0-2 0.9-2 2v4.8c0 1 0.9 1.9 1.9 1.9z"></path>
			<path class="st0" d="m31.3 13.2h-8.4c-0.4 0-0.7 0.3-0.7 0.7s0.3 0.7 0.7 0.7h8.4c0.4 0 0.7-0.3 0.7-0.7s-0.3-0.7-0.7-0.7z"></path>
			<path class="st0" d="m31.3 16.4h-8.4c-0.4 0-0.7 0.3-0.7 0.7s0.3 0.7 0.7 0.7h8.4c0.4 0 0.7-0.3 0.7-0.7s-0.3-0.7-0.7-0.7z"></path>
			<path class="st0" d="m18.3 24.1-3.6 3.6-1.5-1.5c-0.2-0.2-0.6-0.2-0.8 0-0.1 0.1-0.2 0.2-0.2 0.4 0 0.1 0.1 0.3 0.2 0.4l1.9 1.9c0.1 0.1 0.2 0.2 0.4 0.2 0.1 0 0.3-0.1 0.4-0.2l3.9-3.9c0.1-0.1 0.2-0.2 0.2-0.4 0-0.1-0.1-0.3-0.2-0.4-0.1-0.3-0.5-0.3-0.7-0.1z"></path>
			<path class="st0" d="m18.7 26.7c-0.3 0-0.5 0.2-0.5 0.5v2.1c0 0.5-0.4 0.9-0.9 0.9h-4.8c-0.5 0-0.9-0.4-0.9-0.9v-4.8c0-0.5 0.4-0.9 0.9-0.9h4.8c0.3 0 0.5-0.2 0.5-0.5s-0.3-0.5-0.5-0.5h-4.8c-1.1 0-2 0.9-2 2v4.8c0 1.1 0.9 2 2 2h4.8c1.1 0 2-0.9 2-2v-2.1c-0.1-0.3-0.3-0.6-0.6-0.6z"></path>
			<path class="st0" d="m31.3 24.6h-8.4c-0.4 0-0.7 0.3-0.7 0.7s0.3 0.7 0.7 0.7h8.4c0.4 0 0.7-0.3 0.7-0.7 0-0.3-0.3-0.7-0.7-0.7z"></path>
			<path class="st0" d="m31.3 27.8h-8.4c-0.4 0-0.7 0.3-0.7 0.7s0.3 0.7 0.7 0.7h8.4c0.4 0 0.7-0.3 0.7-0.7s-0.3-0.7-0.7-0.7z"></path>
		
	</g>

</svg>
