<?xml version="1.0" encoding="UTF-8"?>
<svg xmlns="http://www.w3.org/2000/svg" viewBox="0 0 42.5 42.5" xml:space="preserve">
<style type="text/css">
	.st0{fill:#FFF;}
</style>
	<g>
		<path class="st0" d="M21.3,0C9.5,0,0,9.5,0,21.3s9.5,21.3,21.3,21.3S42.5,33,42.5,21.3S33,0,21.3,0z M21.3,41     C10.4,41,1.5,32.2,1.5,21.3c0-10.9,8.9-19.8,19.8-19.8C32.2,1.5,41,10.4,41,21.3C41,32.2,32.2,41,21.3,41z"></path>
		<path class="st0" d="M22,9c-0.3-0.5-1.2-0.5-1.5,0L8.9,27.8c-0.2,0.3-0.2,0.6,0,0.9c0.1,0.3,0.4,0.4,0.8,0.4h23.1     c0.5,0,0.9-0.4,1-0.9c0-0.3-0.1-0.5-0.3-0.7L22,9z M11.2,27.4l10-16.2l9.9,16.2H11.2z"></path>
		<path class="st0" d="M20.3,16.4V22c0,0.5,0.4,0.9,0.9,0.9c0.5,0,0.9-0.4,0.9-0.9v-5.5c0-0.5-0.4-0.9-0.9-0.9     C20.7,15.6,20.3,16,20.3,16.4z"></path>
		<path class="st0" d="M21.2,23.9c-0.5,0-0.9,0.4-0.9,0.9c0,0.5,0.4,0.9,0.9,0.9s0.9-0.4,0.9-0.9C22.1,24.4,21.7,23.9,21.2,23.9z"></path>
	</g>
</svg>
