<svg enable-background="new 0 0 18.4 18.4" version="1.1" viewBox="0 0 18.4 18.4" xml:space="preserve" xmlns="http://www.w3.org/2000/svg">
	<style type="text/css">
		.social-default{fill:#FFF;}
	</style>
	<g>
		<path class="social-default" d="m9.2 0c-5.1 0-9.2 4.1-9.2 9.2s4.1 9.2 9.2 9.2 9.2-4.1 9.2-9.2-4.1-9.2-9.2-9.2zm0 17.6c-4.6 0-8.4-3.8-8.4-8.4s3.8-8.4 8.4-8.4 8.4 3.8 8.4 8.4-3.8 8.4-8.4 8.4z"/>
		<path class="social-default" d="m9.2 8.8c1.2 0 2.1-1 2.1-2.1 0-0.6-0.2-1.1-0.6-1.5s-0.9-0.6-1.5-0.6-1.1 0.2-1.5 0.6-0.6 1-0.6 1.5c0 0.6 0.2 1.1 0.6 1.5s0.9 0.6 1.5 0.6zm0-3.7c0.4 0 0.8 0.2 1.1 0.4 0.3 0.3 0.4 0.7 0.4 1.1s-0.2 0.8-0.4 1.1c-0.3 0.3-0.7 0.5-1.1 0.5s-0.8-0.2-1.1-0.4c-0.3-0.3-0.4-0.7-0.4-1.1 0-0.9 0.7-1.6 1.5-1.6z"/>
		<path class="social-default" d="m11.4 10c-0.6-0.5-1.4-0.8-2.2-0.8-1.6 0-3 1.2-3.2 2.8 0 0.1 0 0.2 0.1 0.3 0 0.1 0.1 0.1 0.2 0.1 0.2 0 0.3-0.1 0.3-0.3 0.1-0.6 0.4-1.2 0.9-1.6s1.1-0.7 1.7-0.7c1.3 0 2.4 1 2.6 2.3 0 0.1 0 0.1 0.1 0.2 0.1 0 0.1 0.1 0.2 0.1 0.2 0 0.3-0.2 0.3-0.3-0.1-0.8-0.5-1.6-1-2.1z"/>
		<path class="social-default" d="m13.3 9.7c0.5 0 0.9-0.2 1.2-0.5s0.5-0.8 0.5-1.2c0-0.9-0.8-1.7-1.7-1.7-0.4 0-0.9 0.2-1.2 0.5s-0.5 0.7-0.5 1.2c0 0.9 0.7 1.7 1.7 1.7zm-0.8-2.5c0.2-0.2 0.5-0.3 0.8-0.3 0.6 0 1.1 0.5 1.1 1.1 0 0.3-0.1 0.6-0.3 0.8s-0.5 0.3-0.8 0.3c-0.6 0-1.1-0.5-1.1-1.1 0-0.3 0.1-0.6 0.3-0.8z"/>
		<path class="social-default" d="m15 10.5c-0.5-0.4-1-0.6-1.6-0.6-0.4 0-0.7 0.1-1.1 0.3-0.1 0.1-0.2 0.3-0.1 0.4s0.2 0.2 0.3 0.2h0.2c0.2-0.1 0.5-0.2 0.8-0.2 0.4 0 0.9 0.2 1.2 0.4 0.3 0.3 0.6 0.7 0.6 1.1 0 0.1 0.2 0.3 0.3 0.3s0.1 0 0.2-0.1 0.1-0.2 0.1-0.2c-0.2-0.7-0.5-1.2-0.9-1.6z"/>
		<path class="social-default" d="m5.2 9.7c0.9 0 1.7-0.8 1.7-1.7 0-0.4-0.2-0.9-0.5-1.2-0.4-0.3-0.8-0.5-1.2-0.5-1 0-1.7 0.7-1.7 1.7 0 0.5 0.2 0.9 0.5 1.2s0.7 0.5 1.2 0.5zm0-2.8c0.3 0 0.5 0.1 0.8 0.3 0.1 0.2 0.2 0.5 0.2 0.8 0 0.6-0.5 1.1-1.1 1.1-0.3 0-0.6-0.1-0.8-0.3-0.1-0.3-0.2-0.5-0.2-0.8 0-0.6 0.5-1.1 1.1-1.1z"/>
		<path class="social-default" d="m6.4 10.6c0.1-0.2 0-0.3-0.1-0.4-0.5-0.2-0.9-0.3-1.2-0.3-0.6 0-1.2 0.2-1.6 0.6-0.5 0.4-0.8 0.9-0.9 1.5 0 0.1 0 0.2 0.1 0.2 0.1 0.1 0.1 0.1 0.2 0.1s0.3-0.1 0.3-0.3c0.1-0.4 0.3-0.8 0.6-1.1s0.8-0.4 1.2-0.4c0.3 0 0.6 0.1 0.8 0.2h0.2c0.2 0.1 0.3 0 0.4-0.1z"/>
	</g>
</svg>
