
<svg enable-background="new 0 0 18.4 18.4" version="1.1" viewBox="0 0 18.4 18.4" xml:space="preserve" xmlns="http://www.w3.org/2000/svg">
	<style type="text/css">
		.environmental-default{fill:#006a4d;}
	</style>
	<g>
		<path class="environmental-default" d="m8.5 9.2v0.3 3.6c0 0.1 0 0.1 0.1 0.2 0 0.1 0.1 0.1 0.2 0.1s0.1 0 0.2-0.1 0.1-0.1 0.1-0.2v-3.6c0.2-0.8 0.9-1.3 1.8-1.5-0.9 0.5-1.4 1.2-1.5 2 2.6 1.2 4.3-0.2 5.2-4.2-4.2-0.9-6.2 0.2-6.1 3.4z"/>
		<path class="environmental-default" d="m3.3 7.4c0.7 2.7 2 3.8 3.7 3.2-0.1-0.7-0.6-1.2-1.3-1.8 0.7 0.2 1.2 0.6 1.5 1v3.1c0 0.1 0 0.1 0.1 0.2s0.1 0.1 0.2 0.1 0.1 0 0.2-0.1 0.1-0.1 0.1-0.2v-3-0.1c-0.1-2.2-1.6-3-4.5-2.4z"/>
		<path class="environmental-default" d="m9.2 0c-5.1 0-9.2 4.1-9.2 9.2s4.1 9.2 9.2 9.2 9.2-4.1 9.2-9.2-4.1-9.2-9.2-9.2zm0 17.6c-4.6 0-8.4-3.8-8.4-8.4s3.8-8.4 8.4-8.4 8.4 3.8 8.4 8.4-3.8 8.4-8.4 8.4z"/>
	</g>
</svg>
