
<svg enable-background="new 0 0 18.4 18.4" version="1.1" viewBox="0 0 18.4 18.4" xml:space="preserve" xmlns="http://www.w3.org/2000/svg">
	<style type="text/css">
		.governance-default{fill:#3b64a2;}
	</style>
	<g>
		<path class="governance-default" d="m9.2 0c-5.1 0-9.2 4.1-9.2 9.2s4.1 9.2 9.2 9.2 9.2-4.1 9.2-9.2-4.1-9.2-9.2-9.2zm0 17.6c-4.6 0-8.4-3.8-8.4-8.4s3.8-8.4 8.4-8.4 8.4 3.8 8.4 8.4-3.8 8.4-8.4 8.4z"/>
		<path class="governance-default" d="m10.4 8.6c-0.2-0.2-0.4-0.2-0.6 0l-0.5-0.3 1.2-1.2c0.1 0.1 0.2 0.1 0.3 0.1s0.3 0 0.3-0.1l0.4-0.4c0.1-0.1 0.1-0.2 0.1-0.3s-0.1-0.3-0.1-0.3l-2.3-2.4c-0.2-0.2-0.5-0.2-0.7 0l-0.3 0.4c-0.1 0.1-0.2 0.2-0.2 0.3s0.1 0.3 0.1 0.3l-2.6 2.8c-0.2-0.3-0.5-0.3-0.7-0.1l-0.4 0.4c-0.1 0.1-0.1 0.2-0.1 0.3s0.1 0.3 0.1 0.3l2.4 2.4c0.1 0.2 0.2 0.2 0.4 0.2 0.1 0 0.3 0 0.3-0.1l0.4-0.4c0.1-0.1 0.1-0.2 0.1-0.4s0-0.2-0.1-0.3l1.2-1.2 0.4 0.4c-0.2 0.2-0.2 0.4 0 0.6l3.4 3.6s0.5 0.5 1.1 0 0-1.1 0-1.1l-3.6-3.5zm-2-4.3 0.4-0.4h0.1 0.1l2.4 2.4v0.1 0.1l-0.4 0.4c0 0.1-0.1 0.1-0.2 0l-2.4-2.4v-0.1c-0.1 0 0-0.1 0-0.1zm-0.8 5.9-0.4 0.4c-0.1 0.1-0.2 0.1-0.2 0l-2.4-2.4v-0.1-0.1l0.4-0.3h0.1s0.1 0 0.1 0l2.4 2.3v0.1s0.1 0.1 0 0.1zm1.3-2-1.3 1.3-1.8-1.8 2.6-2.7 1.8 1.8-1.3 1.4zm4.8 4.7c-0.3 0.3-0.7 0-0.7 0l-3.4-3.5v-0.1l0.4-0.4h0.1 0.1l3.6 3.4c-0.1 0 0.2 0.3-0.1 0.6z"/>
		<path class="governance-default" d="m8.8 12.4h-0.5v-0.9c0-0.1-0.1-0.2-0.2-0.2h-3c-0.1 0-0.2 0.1-0.2 0.2v0.9h-0.5c-0.1 0-0.2 0.1-0.2 0.2v1.1c0 0.1 0.1 0.2 0.2 0.2h4.4c0.1 0 0.2-0.1 0.2-0.2v-1.1c0-0.1-0.1-0.2-0.2-0.2zm-3.5-0.7h2.7v0.7h-2.7v-0.7zm3.4 1.8h-4.1v-0.7h4.1v0.7z"/>
	</g>
</svg>
